<svg width="468" height="79" viewBox="0 0 468 79" fill="none" xmlns="http://www.w3.org/2000/svg">
<path d="M35.4323 78.1293C28.2133 78.1293 21.9539 76.5302 16.6539 73.3319C11.3996 70.1336 7.31034 65.6332 4.3862 59.8306C1.46207 54.028 0 47.2203 0 39.4073C0 31.3203 1.43922 24.3297 4.31767 18.4358C7.19611 12.5418 11.2396 7.99569 16.4483 4.79741C21.7026 1.59914 27.8935 0 35.0211 0C42.3314 0 48.5681 1.69052 53.731 5.07155C58.8939 8.4069 62.8004 13.2043 65.4504 19.4638C68.1004 25.7233 69.3111 33.1935 69.0827 41.8746H58.8025V38.3108C58.6198 28.716 56.5409 21.4741 52.5659 16.5853C48.6366 11.6966 42.8797 9.25216 35.2952 9.25216C27.3452 9.25216 21.2457 11.8336 16.9965 16.9966C12.7931 22.1595 10.6914 29.5155 10.6914 39.0647C10.6914 48.3854 12.7931 55.6272 16.9965 60.7901C21.2457 65.9073 27.2538 68.466 35.0211 68.466C40.3211 68.466 44.9357 67.2552 48.865 64.8336C52.84 62.3664 55.9698 58.8254 58.2543 54.2108L67.6435 57.8431C64.7193 64.2854 60.4017 69.2884 54.6905 72.8522C49.0249 76.3703 42.6056 78.1293 35.4323 78.1293ZM7.12758 41.8746V33.4448H63.6685V41.8746H7.12758Z" fill="#00223B"/>
<path d="M163.703 76.0733L163.772 27.4823C163.772 21.7711 162.172 17.2935 158.974 14.0496C155.822 10.7599 151.801 9.11508 146.912 9.11508C144.125 9.11508 141.406 9.75474 138.756 11.0341C136.106 12.3134 133.913 14.3694 132.177 17.2022C130.487 20.0349 129.641 23.7358 129.641 28.3047L123.679 26.5914C123.542 21.2914 124.57 16.6539 126.763 12.6789C129.002 8.70388 132.063 5.61982 135.947 3.42672C139.876 1.18793 144.308 0.0685295 149.242 0.0685295C156.69 0.0685295 162.652 2.37586 167.13 6.99052C171.607 11.5595 173.846 17.7504 173.846 25.5634L173.778 76.0733H163.703ZM75.3621 76.0733V2.05603H84.4087V20.2862H85.5052V76.0733H75.3621ZM119.635 76.0733L119.704 28.1677C119.704 22.2737 118.128 17.6362 114.975 14.2552C111.868 10.8284 107.756 9.11508 102.639 9.11508C97.5216 9.11508 93.3867 10.8741 90.2341 14.3922C87.0815 17.8647 85.5052 22.5022 85.5052 28.3047L79.4742 25.0151C79.4742 20.2634 80.5936 16.0142 82.8324 12.2677C85.0712 8.47543 88.1324 5.5056 92.016 3.35818C95.8996 1.16508 100.309 0.0685295 105.243 0.0685295C109.949 0.0685295 114.13 1.0737 117.785 3.08405C121.486 5.0944 124.387 8.01853 126.489 11.8565C128.591 15.6944 129.641 20.3547 129.641 25.8375L129.573 76.0733H119.635Z" fill="#00223B"/>
<mask id="path-2-inside-1_196_1687" fill="white">
<path fill-rule="evenodd" clip-rule="evenodd" d="M432.108 78.1292C422.663 78.1292 370.825 78.1292 361.38 78.1292V78.1292C341.558 78.1292 325.489 60.642 325.489 39.0704C325.489 17.4989 341.558 0.0116577 361.38 0.0116577V0.0116577C370.825 0.0116577 422.663 0.011667 432.108 0.011667V0.011667C451.931 0.011667 468 17.4989 468 39.0704C468 60.642 451.931 78.1292 432.108 78.1292V78.1292Z"/>
</mask>
<path d="M361.38 68.1292C347.86 68.1292 335.489 55.932 335.489 39.0704H315.489C315.489 65.352 335.256 88.1292 361.38 88.1292V68.1292ZM335.489 39.0704C335.489 22.2089 347.86 10.0117 361.38 10.0117V-9.98834C335.256 -9.98834 315.489 12.7889 315.489 39.0704H335.489ZM432.108 10.0117C445.629 10.0117 458 22.2089 458 39.0704H478C478 12.7889 458.233 -9.98833 432.108 -9.98833V10.0117ZM458 39.0704C458 55.932 445.629 68.1292 432.108 68.1292V88.1292C458.233 88.1292 478 65.352 478 39.0704H458ZM361.38 10.0117C366.103 10.0117 381.423 10.0117 396.744 10.0117C412.065 10.0117 427.386 10.0117 432.108 10.0117V-9.98833C427.386 -9.98833 412.065 -9.98834 396.744 -9.98834C381.423 -9.98834 366.103 -9.98834 361.38 -9.98834V10.0117ZM361.38 88.1292C366.103 88.1292 381.423 88.1292 396.744 88.1292C412.065 88.1292 427.386 88.1292 432.108 88.1292V68.1292C427.386 68.1292 412.065 68.1292 396.744 68.1292C381.423 68.1292 366.103 68.1292 361.38 68.1292V88.1292Z" fill="#00223B" mask="url(#path-2-inside-1_196_1687)"/>
<mask id="path-4-inside-2_196_1687" fill="white">
<path fill-rule="evenodd" clip-rule="evenodd" d="M285.124 77.1013C275.585 77.1013 223.936 77.1013 214.396 77.1013V77.1013C194.574 77.1013 178.504 60.0743 178.504 39.0704C178.504 18.0665 194.574 1.03949 214.396 1.03949V1.03949C223.936 1.03949 275.585 1.03949 285.124 1.03949V1.03949C304.947 1.03949 321.016 18.0665 321.016 39.0704C321.016 60.0743 304.947 77.1013 285.124 77.1013V77.1013Z"/>
</mask>
<path d="M214.396 67.1013C200.634 67.1013 188.504 55.1047 188.504 39.0704H168.504C168.504 65.0438 188.513 87.1013 214.396 87.1013V67.1013ZM188.504 39.0704C188.504 23.036 200.634 11.0395 214.396 11.0395V-8.96051C188.513 -8.96051 168.504 13.097 168.504 39.0704H188.504ZM285.124 11.0395C298.886 11.0395 311.016 23.036 311.016 39.0704H331.016C331.016 13.097 311.007 -8.96051 285.124 -8.96051V11.0395ZM311.016 39.0704C311.016 55.1047 298.886 67.1013 285.124 67.1013V87.1013C311.007 87.1013 331.016 65.0438 331.016 39.0704H311.016ZM214.396 11.0395C219.166 11.0395 234.463 11.0395 249.76 11.0395C265.057 11.0395 280.354 11.0395 285.124 11.0395V-8.96051C280.354 -8.96051 265.057 -8.96051 249.76 -8.96051C234.463 -8.96051 219.166 -8.96051 214.396 -8.96051V11.0395ZM214.396 87.1013C214.415 87.1013 214.434 87.1013 214.453 87.1013C214.472 87.1013 214.491 87.1013 214.51 87.1013C214.529 87.1013 214.549 87.1013 214.568 87.1013C214.588 87.1013 214.608 87.1013 214.627 87.1013C214.647 87.1013 214.667 87.1013 214.688 87.1013C214.708 87.1013 214.728 87.1013 214.749 87.1013C214.769 87.1013 214.79 87.1013 214.811 87.1013C214.832 87.1013 214.853 87.1013 214.874 87.1013C214.895 87.1013 214.916 87.1013 214.938 87.1013C214.959 87.1013 214.981 87.1013 215.003 87.1013C215.024 87.1013 215.046 87.1013 215.068 87.1013C215.091 87.1013 215.113 87.1013 215.135 87.1013C215.158 87.1013 215.18 87.1013 215.203 87.1013C215.226 87.1013 215.248 87.1013 215.271 87.1013C215.294 87.1013 215.318 87.1013 215.341 87.1013C215.364 87.1013 215.388 87.1013 215.411 87.1013C215.435 87.1013 215.459 87.1013 215.483 87.1013C215.506 87.1013 215.531 87.1013 215.555 87.1013C215.579 87.1013 215.603 87.1013 215.628 87.1013C215.652 87.1013 215.677 87.1013 215.702 87.1013C215.727 87.1013 215.752 87.1013 215.777 87.1013C215.802 87.1013 215.827 87.1013 215.852 87.1013C215.878 87.1013 215.903 87.1013 215.929 87.1013C215.955 87.1013 215.981 87.1013 216.007 87.1013C216.033 87.1013 216.059 87.1013 216.085 87.1013C216.111 87.1013 216.138 87.1013 216.164 87.1013C216.191 87.1013 216.217 87.1013 216.244 87.1013C216.271 87.1013 216.298 87.1013 216.325 87.1013C216.352 87.1013 216.38 87.1013 216.407 87.1013C216.435 87.1013 216.462 87.1013 216.49 87.1013C216.518 87.1013 216.545 87.1013 216.573 87.1013C216.601 87.1013 216.629 87.1013 216.658 87.1013C216.686 87.1013 216.714 87.1013 216.743 87.1013C216.772 87.1013 216.8 87.1013 216.829 87.1013C216.858 87.1013 216.887 87.1013 216.916 87.1013C216.945 87.1013 216.974 87.1013 217.004 87.1013C217.033 87.1013 217.063 87.1013 217.092 87.1013C217.122 87.1013 217.152 87.1013 217.182 87.1013C217.212 87.1013 217.242 87.1013 217.272 87.1013C217.302 87.1013 217.332 87.1013 217.363 87.1013C217.393 87.1013 217.424 87.1013 217.455 87.1013C217.485 87.1013 217.516 87.1013 217.547 87.1013C217.578 87.1013 217.61 87.1013 217.641 87.1013C217.672 87.1013 217.704 87.1013 217.735 87.1013C217.767 87.1013 217.798 87.1013 217.83 87.1013C217.862 87.1013 217.894 87.1013 217.926 87.1013C217.958 87.1013 217.99 87.1013 218.023 87.1013C218.055 87.1013 218.087 87.1013 218.12 87.1013C218.153 87.1013 218.185 87.1013 218.218 87.1013C218.251 87.1013 218.284 87.1013 218.317 87.1013C218.35 87.1013 218.384 87.1013 218.417 87.1013C218.45 87.1013 218.484 87.1013 218.518 87.1013C218.551 87.1013 218.585 87.1013 218.619 87.1013C218.653 87.1013 218.687 87.1013 218.721 87.1013C218.755 87.1013 218.789 87.1013 218.824 87.1013C218.858 87.1013 218.893 87.1013 218.927 87.1013C218.962 87.1013 218.997 87.1013 219.032 87.1013C219.067 87.1013 219.102 87.1013 219.137 87.1013C219.172 87.1013 219.207 87.1013 219.243 87.1013C219.278 87.1013 219.314 87.1013 219.349 87.1013C219.385 87.1013 219.421 87.1013 219.457 87.1013C219.492 87.1013 219.528 87.1013 219.565 87.1013C219.601 87.1013 219.637 87.1013 219.673 87.1013C219.71 87.1013 219.746 87.1013 219.783 87.1013C219.819 87.1013 219.856 87.1013 219.893 87.1013C219.93 87.1013 219.967 87.1013 220.004 87.1013C220.041 87.1013 220.078 87.1013 220.116 87.1013C220.153 87.1013 220.19 87.1013 220.228 87.1013C220.266 87.1013 220.303 87.1013 220.341 87.1013C220.379 87.1013 220.417 87.1013 220.455 87.1013C220.493 87.1013 220.531 87.1013 220.569 87.1013C220.608 87.1013 220.646 87.1013 220.685 87.1013C220.723 87.1013 220.762 87.1013 220.8 87.1013C220.839 87.1013 220.878 87.1013 220.917 87.1013C220.956 87.1013 220.995 87.1013 221.034 87.1013C221.073 87.1013 221.113 87.1013 221.152 87.1013C221.192 87.1013 221.231 87.1013 221.271 87.1013C221.31 87.1013 221.35 87.1013 221.39 87.1013C221.43 87.1013 221.47 87.1013 221.51 87.1013C221.55 87.1013 221.59 87.1013 221.631 87.1013C221.671 87.1013 221.711 87.1013 221.752 87.1013C221.793 87.1013 221.833 87.1013 221.874 87.1013C221.915 87.1013 221.956 87.1013 221.997 87.1013C222.037 87.1013 222.079 87.1013 222.12 87.1013C222.161 87.1013 222.202 87.1013 222.244 87.1013C222.285 87.1013 222.327 87.1013 222.368 87.1013C222.41 87.1013 222.452 87.1013 222.493 87.1013C222.535 87.1013 222.577 87.1013 222.619 87.1013C222.661 87.1013 222.703 87.1013 222.746 87.1013C222.788 87.1013 222.83 87.1013 222.873 87.1013C222.915 87.1013 222.958 87.1013 223 87.1013C223.043 87.1013 223.086 87.1013 223.129 87.1013C223.172 87.1013 223.215 87.1013 223.258 87.1013C223.301 87.1013 223.344 87.1013 223.387 87.1013C223.431 87.1013 223.474 87.1013 223.517 87.1013C223.561 87.1013 223.604 87.1013 223.648 87.1013C223.692 87.1013 223.736 87.1013 223.78 87.1013C223.823 87.1013 223.867 87.1013 223.912 87.1013C223.956 87.1013 224 87.1013 224.044 87.1013C224.088 87.1013 224.133 87.1013 224.177 87.1013C224.222 87.1013 224.266 87.1013 224.311 87.1013C224.356 87.1013 224.4 87.1013 224.445 87.1013C224.49 87.1013 224.535 87.1013 224.58 87.1013C224.625 87.1013 224.67 87.1013 224.716 87.1013C224.761 87.1013 224.806 87.1013 224.852 87.1013C224.897 87.1013 224.943 87.1013 224.988 87.1013C225.034 87.1013 225.08 87.1013 225.126 87.1013C225.171 87.1013 225.217 87.1013 225.263 87.1013C225.309 87.1013 225.355 87.1013 225.402 87.1013C225.448 87.1013 225.494 87.1013 225.541 87.1013C225.587 87.1013 225.633 87.1013 225.68 87.1013C225.726 87.1013 225.773 87.1013 225.82 87.1013C225.867 87.1013 225.913 87.1013 225.96 87.1013C226.007 87.1013 226.054 87.1013 226.101 87.1013C226.149 87.1013 226.196 87.1013 226.243 87.1013C226.29 87.1013 226.338 87.1013 226.385 87.1013C226.433 87.1013 226.48 87.1013 226.528 87.1013C226.575 87.1013 226.623 87.1013 226.671 87.1013C226.719 87.1013 226.767 87.1013 226.815 87.1013C226.863 87.1013 226.911 87.1013 226.959 87.1013C227.007 87.1013 227.055 87.1013 227.103 87.1013C227.152 87.1013 227.2 87.1013 227.249 87.1013C227.297 87.1013 227.346 87.1013 227.394 87.1013C227.443 87.1013 227.492 87.1013 227.541 87.1013C227.589 87.1013 227.638 87.1013 227.687 87.1013C227.736 87.1013 227.785 87.1013 227.834 87.1013C227.884 87.1013 227.933 87.1013 227.982 87.1013C228.031 87.1013 228.081 87.1013 228.13 87.1013C228.18 87.1013 228.229 87.1013 228.279 87.1013C228.329 87.1013 228.378 87.1013 228.428 87.1013C228.478 87.1013 228.528 87.1013 228.578 87.1013C228.628 87.1013 228.678 87.1013 228.728 87.1013C228.778 87.1013 228.828 87.1013 228.878 87.1013C228.929 87.1013 228.979 87.1013 229.029 87.1013C229.08 87.1013 229.13 87.1013 229.181 87.1013C229.231 87.1013 229.282 87.1013 229.333 87.1013C229.384 87.1013 229.434 87.1013 229.485 87.1013C229.536 87.1013 229.587 87.1013 229.638 87.1013C229.689 87.1013 229.74 87.1013 229.791 87.1013C229.842 87.1013 229.894 87.1013 229.945 87.1013C229.996 87.1013 230.048 87.1013 230.099 87.1013C230.151 87.1013 230.202 87.1013 230.254 87.1013C230.305 87.1013 230.357 87.1013 230.409 87.1013C230.461 87.1013 230.512 87.1013 230.564 87.1013C230.616 87.1013 230.668 87.1013 230.72 87.1013C230.772 87.1013 230.824 87.1013 230.876 87.1013C230.929 87.1013 230.981 87.1013 231.033 87.1013C231.085 87.1013 231.138 87.1013 231.19 87.1013C231.243 87.1013 231.295 87.1013 231.348 87.1013C231.4 87.1013 231.453 87.1013 231.506 87.1013C231.558 87.1013 231.611 87.1013 231.664 87.1013C231.717 87.1013 231.77 87.1013 231.823 87.1013C231.876 87.1013 231.929 87.1013 231.982 87.1013C232.035 87.1013 232.088 87.1013 232.141 87.1013C232.194 87.1013 232.248 87.1013 232.301 87.1013C232.354 87.1013 232.408 87.1013 232.461 87.1013C232.515 87.1013 232.568 87.1013 232.622 87.1013C232.676 87.1013 232.729 87.1013 232.783 87.1013C232.837 87.1013 232.89 87.1013 232.944 87.1013C232.998 87.1013 233.052 87.1013 233.106 87.1013C233.16 87.1013 233.214 87.1013 233.268 87.1013C233.322 87.1013 233.376 87.1013 233.431 87.1013C233.485 87.1013 233.539 87.1013 233.593 87.1013C233.648 87.1013 233.702 87.1013 233.757 87.1013C233.811 87.1013 233.865 87.1013 233.92 87.1013C233.975 87.1013 234.029 87.1013 234.084 87.1013C234.139 87.1013 234.193 87.1013 234.248 87.1013C234.303 87.1013 234.358 87.1013 234.413 87.1013C234.467 87.1013 234.522 87.1013 234.577 87.1013C234.632 87.1013 234.687 87.1013 234.743 87.1013C234.798 87.1013 234.853 87.1013 234.908 87.1013C234.963 87.1013 235.019 87.1013 235.074 87.1013C235.129 87.1013 235.185 87.1013 235.24 87.1013C235.295 87.1013 235.351 87.1013 235.407 87.1013C235.462 87.1013 235.518 87.1013 235.573 87.1013C235.629 87.1013 235.685 87.1013 235.74 87.1013C235.796 87.1013 235.852 87.1013 235.908 87.1013C235.964 87.1013 236.019 87.1013 236.075 87.1013C236.131 87.1013 236.187 87.1013 236.243 87.1013C236.299 87.1013 236.355 87.1013 236.412 87.1013C236.468 87.1013 236.524 87.1013 236.58 87.1013C236.636 87.1013 236.693 87.1013 236.749 87.1013C236.805 87.1013 236.862 87.1013 236.918 87.1013C236.974 87.1013 237.031 87.1013 237.087 87.1013C237.144 87.1013 237.2 87.1013 237.257 87.1013C237.314 87.1013 237.37 87.1013 237.427 87.1013C237.484 87.1013 237.54 87.1013 237.597 87.1013C237.654 87.1013 237.711 87.1013 237.768 87.1013C237.824 87.1013 237.881 87.1013 237.938 87.1013C237.995 87.1013 238.052 87.1013 238.109 87.1013C238.166 87.1013 238.223 87.1013 238.28 87.1013C238.337 87.1013 238.395 87.1013 238.452 87.1013C238.509 87.1013 238.566 87.1013 238.623 87.1013C238.681 87.1013 238.738 87.1013 238.795 87.1013C238.853 87.1013 238.91 87.1013 238.967 87.1013C239.025 87.1013 239.082 87.1013 239.14 87.1013C239.197 87.1013 239.255 87.1013 239.312 87.1013C239.37 87.1013 239.428 87.1013 239.485 87.1013C239.543 87.1013 239.601 87.1013 239.658 87.1013C239.716 87.1013 239.774 87.1013 239.832 87.1013C239.889 87.1013 239.947 87.1013 240.005 87.1013C240.063 87.1013 240.121 87.1013 240.179 87.1013C240.237 87.1013 240.295 87.1013 240.353 87.1013C240.411 87.1013 240.469 87.1013 240.527 87.1013C240.585 87.1013 240.643 87.1013 240.701 87.1013C240.759 87.1013 240.817 87.1013 240.875 87.1013C240.934 87.1013 240.992 87.1013 241.05 87.1013C241.108 87.1013 241.167 87.1013 241.225 87.1013C241.283 87.1013 241.342 87.1013 241.4 87.1013C241.458 87.1013 241.517 87.1013 241.575 87.1013C241.634 87.1013 241.692 87.1013 241.75 87.1013C241.809 87.1013 241.867 87.1013 241.926 87.1013C241.985 87.1013 242.043 87.1013 242.102 87.1013C242.16 87.1013 242.219 87.1013 242.278 87.1013C242.336 87.1013 242.395 87.1013 242.454 87.1013C242.512 87.1013 242.571 87.1013 242.63 87.1013C242.688 87.1013 242.747 87.1013 242.806 87.1013C242.865 87.1013 242.924 87.1013 242.983 87.1013C243.041 87.1013 243.1 87.1013 243.159 87.1013C243.218 87.1013 243.277 87.1013 243.336 87.1013C243.395 87.1013 243.454 87.1013 243.513 87.1013C243.572 87.1013 243.631 87.1013 243.69 87.1013C243.749 87.1013 243.808 87.1013 243.867 87.1013C243.926 87.1013 243.985 87.1013 244.044 87.1013C244.103 87.1013 244.162 87.1013 244.222 87.1013C244.281 87.1013 244.34 87.1013 244.399 87.1013C244.458 87.1013 244.518 87.1013 244.577 87.1013C244.636 87.1013 244.695 87.1013 244.755 87.1013C244.814 87.1013 244.873 87.1013 244.932 87.1013C244.992 87.1013 245.051 87.1013 245.11 87.1013C245.17 87.1013 245.229 87.1013 245.288 87.1013C245.348 87.1013 245.407 87.1013 245.466 87.1013C245.526 87.1013 245.585 87.1013 245.645 87.1013C245.704 87.1013 245.764 87.1013 245.823 87.1013C245.882 87.1013 245.942 87.1013 246.001 87.1013C246.061 87.1013 246.12 87.1013 246.18 87.1013C246.239 87.1013 246.299 87.1013 246.358 87.1013C246.418 87.1013 246.477 87.1013 246.537 87.1013C246.597 87.1013 246.656 87.1013 246.716 87.1013C246.775 87.1013 246.835 87.1013 246.894 87.1013C246.954 87.1013 247.014 87.1013 247.073 87.1013C247.133 87.1013 247.193 87.1013 247.252 87.1013C247.312 87.1013 247.371 87.1013 247.431 87.1013C247.491 87.1013 247.55 87.1013 247.61 87.1013C247.67 87.1013 247.729 87.1013 247.789 87.1013C247.849 87.1013 247.908 87.1013 247.968 87.1013C248.028 87.1013 248.087 87.1013 248.147 87.1013C248.207 87.1013 248.267 87.1013 248.326 87.1013C248.386 87.1013 248.446 87.1013 248.505 87.1013C248.565 87.1013 248.625 87.1013 248.685 87.1013C248.744 87.1013 248.804 87.1013 248.864 87.1013C248.924 87.1013 248.983 87.1013 249.043 87.1013C249.103 87.1013 249.163 87.1013 249.222 87.1013C249.282 87.1013 249.342 87.1013 249.402 87.1013C249.461 87.1013 249.521 87.1013 249.581 87.1013C249.641 87.1013 249.7 87.1013 249.76 87.1013C249.82 87.1013 249.88 87.1013 249.939 87.1013C249.999 87.1013 250.059 87.1013 250.119 87.1013C250.178 87.1013 250.238 87.1013 250.298 87.1013C250.358 87.1013 250.417 87.1013 250.477 87.1013C250.537 87.1013 250.597 87.1013 250.656 87.1013C250.716 87.1013 250.776 87.1013 250.836 87.1013C250.895 87.1013 250.955 87.1013 251.015 87.1013C251.074 87.1013 251.134 87.1013 251.194 87.1013C251.254 87.1013 251.313 87.1013 251.373 87.1013C251.433 87.1013 251.492 87.1013 251.552 87.1013C251.612 87.1013 251.671 87.1013 251.731 87.1013C251.791 87.1013 251.851 87.1013 251.91 87.1013C251.97 87.1013 252.029 87.1013 252.089 87.1013C252.149 87.1013 252.208 87.1013 252.268 87.1013C252.328 87.1013 252.387 87.1013 252.447 87.1013C252.507 87.1013 252.566 87.1013 252.626 87.1013C252.685 87.1013 252.745 87.1013 252.804 87.1013C252.864 87.1013 252.924 87.1013 252.983 87.1013C253.043 87.1013 253.102 87.1013 253.162 87.1013C253.221 87.1013 253.281 87.1013 253.34 87.1013C253.4 87.1013 253.459 87.1013 253.519 87.1013C253.578 87.1013 253.638 87.1013 253.697 87.1013C253.757 87.1013 253.816 87.1013 253.876 87.1013C253.935 87.1013 253.994 87.1013 254.054 87.1013C254.113 87.1013 254.173 87.1013 254.232 87.1013C254.291 87.1013 254.351 87.1013 254.41 87.1013C254.469 87.1013 254.529 87.1013 254.588 87.1013C254.647 87.1013 254.706 87.1013 254.766 87.1013C254.825 87.1013 254.884 87.1013 254.943 87.1013C255.003 87.1013 255.062 87.1013 255.121 87.1013C255.18 87.1013 255.239 87.1013 255.299 87.1013C255.358 87.1013 255.417 87.1013 255.476 87.1013C255.535 87.1013 255.594 87.1013 255.653 87.1013C255.712 87.1013 255.771 87.1013 255.83 87.1013C255.889 87.1013 255.948 87.1013 256.007 87.1013C256.066 87.1013 256.125 87.1013 256.184 87.1013C256.243 87.1013 256.302 87.1013 256.361 87.1013C256.42 87.1013 256.479 87.1013 256.538 87.1013C256.597 87.1013 256.655 87.1013 256.714 87.1013C256.773 87.1013 256.832 87.1013 256.89 87.1013C256.949 87.1013 257.008 87.1013 257.067 87.1013C257.125 87.1013 257.184 87.1013 257.243 87.1013C257.301 87.1013 257.36 87.1013 257.419 87.1013C257.477 87.1013 257.536 87.1013 257.594 87.1013C257.653 87.1013 257.711 87.1013 257.77 87.1013C257.828 87.1013 257.887 87.1013 257.945 87.1013C258.004 87.1013 258.062 87.1013 258.12 87.1013C258.179 87.1013 258.237 87.1013 258.295 87.1013C258.354 87.1013 258.412 87.1013 258.47 87.1013C258.528 87.1013 258.587 87.1013 258.645 87.1013C258.703 87.1013 258.761 87.1013 258.819 87.1013C258.877 87.1013 258.935 87.1013 258.994 87.1013C259.052 87.1013 259.11 87.1013 259.168 87.1013C259.226 87.1013 259.284 87.1013 259.342 87.1013C259.399 87.1013 259.457 87.1013 259.515 87.1013C259.573 87.1013 259.631 87.1013 259.689 87.1013C259.746 87.1013 259.804 87.1013 259.862 87.1013C259.92 87.1013 259.977 87.1013 260.035 87.1013C260.093 87.1013 260.15 87.1013 260.208 87.1013C260.265 87.1013 260.323 87.1013 260.38 87.1013C260.438 87.1013 260.495 87.1013 260.553 87.1013C260.61 87.1013 260.668 87.1013 260.725 87.1013C260.782 87.1013 260.84 87.1013 260.897 87.1013C260.954 87.1013 261.011 87.1013 261.068 87.1013C261.126 87.1013 261.183 87.1013 261.24 87.1013C261.297 87.1013 261.354 87.1013 261.411 87.1013C261.468 87.1013 261.525 87.1013 261.582 87.1013C261.639 87.1013 261.696 87.1013 261.753 87.1013C261.81 87.1013 261.866 87.1013 261.923 87.1013C261.98 87.1013 262.037 87.1013 262.093 87.1013C262.15 87.1013 262.207 87.1013 262.263 87.1013C262.32 87.1013 262.376 87.1013 262.433 87.1013C262.489 87.1013 262.546 87.1013 262.602 87.1013C262.659 87.1013 262.715 87.1013 262.771 87.1013C262.828 87.1013 262.884 87.1013 262.94 87.1013C262.996 87.1013 263.053 87.1013 263.109 87.1013C263.165 87.1013 263.221 87.1013 263.277 87.1013C263.333 87.1013 263.389 87.1013 263.445 87.1013C263.501 87.1013 263.557 87.1013 263.613 87.1013C263.668 87.1013 263.724 87.1013 263.78 87.1013C263.836 87.1013 263.891 87.1013 263.947 87.1013C264.003 87.1013 264.058 87.1013 264.114 87.1013C264.169 87.1013 264.225 87.1013 264.28 87.1013C264.336 87.1013 264.391 87.1013 264.446 87.1013C264.502 87.1013 264.557 87.1013 264.612 87.1013C264.667 87.1013 264.722 87.1013 264.778 87.1013C264.833 87.1013 264.888 87.1013 264.943 87.1013C264.998 87.1013 265.053 87.1013 265.108 87.1013C265.163 87.1013 265.217 87.1013 265.272 87.1013C265.327 87.1013 265.382 87.1013 265.436 87.1013C265.491 87.1013 265.546 87.1013 265.6 87.1013C265.655 87.1013 265.709 87.1013 265.764 87.1013C265.818 87.1013 265.873 87.1013 265.927 87.1013C265.981 87.1013 266.035 87.1013 266.09 87.1013C266.144 87.1013 266.198 87.1013 266.252 87.1013C266.306 87.1013 266.36 87.1013 266.414 87.1013C266.468 87.1013 266.522 87.1013 266.576 87.1013C266.63 87.1013 266.684 87.1013 266.737 87.1013C266.791 87.1013 266.845 87.1013 266.898 87.1013C266.952 87.1013 267.005 87.1013 267.059 87.1013C267.112 87.1013 267.166 87.1013 267.219 87.1013C267.273 87.1013 267.326 87.1013 267.379 87.1013C267.432 87.1013 267.485 87.1013 267.539 87.1013C267.592 87.1013 267.645 87.1013 267.698 87.1013C267.751 87.1013 267.803 87.1013 267.856 87.1013C267.909 87.1013 267.962 87.1013 268.015 87.1013C268.067 87.1013 268.12 87.1013 268.173 87.1013C268.225 87.1013 268.278 87.1013 268.33 87.1013C268.383 87.1013 268.435 87.1013 268.487 87.1013C268.539 87.1013 268.592 87.1013 268.644 87.1013C268.696 87.1013 268.748 87.1013 268.8 87.1013C268.852 87.1013 268.904 87.1013 268.956 87.1013C269.008 87.1013 269.06 87.1013 269.111 87.1013C269.163 87.1013 269.215 87.1013 269.266 87.1013C269.318 87.1013 269.37 87.1013 269.421 87.1013C269.472 87.1013 269.524 87.1013 269.575 87.1013C269.626 87.1013 269.678 87.1013 269.729 87.1013C269.78 87.1013 269.831 87.1013 269.882 87.1013C269.933 87.1013 269.984 87.1013 270.035 87.1013C270.086 87.1013 270.137 87.1013 270.187 87.1013C270.238 87.1013 270.289 87.1013 270.339 87.1013C270.39 87.1013 270.44 87.1013 270.491 87.1013C270.541 87.1013 270.592 87.1013 270.642 87.1013C270.692 87.1013 270.742 87.1013 270.792 87.1013C270.842 87.1013 270.892 87.1013 270.942 87.1013C270.992 87.1013 271.042 87.1013 271.092 87.1013C271.142 87.1013 271.192 87.1013 271.241 87.1013C271.291 87.1013 271.34 87.1013 271.39 87.1013C271.439 87.1013 271.489 87.1013 271.538 87.1013C271.587 87.1013 271.637 87.1013 271.686 87.1013C271.735 87.1013 271.784 87.1013 271.833 87.1013C271.882 87.1013 271.931 87.1013 271.98 87.1013C272.028 87.1013 272.077 87.1013 272.126 87.1013C272.175 87.1013 272.223 87.1013 272.272 87.1013C272.32 87.1013 272.368 87.1013 272.417 87.1013C272.465 87.1013 272.513 87.1013 272.561 87.1013C272.61 87.1013 272.658 87.1013 272.706 87.1013C272.754 87.1013 272.802 87.1013 272.849 87.1013C272.897 87.1013 272.945 87.1013 272.992 87.1013C273.04 87.1013 273.088 87.1013 273.135 87.1013C273.183 87.1013 273.23 87.1013 273.277 87.1013C273.325 87.1013 273.372 87.1013 273.419 87.1013C273.466 87.1013 273.513 87.1013 273.56 87.1013C273.607 87.1013 273.654 87.1013 273.7 87.1013C273.747 87.1013 273.794 87.1013 273.84 87.1013C273.887 87.1013 273.933 87.1013 273.98 87.1013C274.026 87.1013 274.072 87.1013 274.119 87.1013C274.165 87.1013 274.211 87.1013 274.257 87.1013C274.303 87.1013 274.349 87.1013 274.395 87.1013C274.44 87.1013 274.486 87.1013 274.532 87.1013C274.577 87.1013 274.623 87.1013 274.668 87.1013C274.714 87.1013 274.759 87.1013 274.804 87.1013C274.85 87.1013 274.895 87.1013 274.94 87.1013C274.985 87.1013 275.03 87.1013 275.075 87.1013C275.12 87.1013 275.165 87.1013 275.209 87.1013C275.254 87.1013 275.298 87.1013 275.343 87.1013C275.387 87.1013 275.432 87.1013 275.476 87.1013C275.52 87.1013 275.565 87.1013 275.609 87.1013C275.653 87.1013 275.697 87.1013 275.741 87.1013C275.785 87.1013 275.828 87.1013 275.872 87.1013C275.916 87.1013 275.959 87.1013 276.003 87.1013C276.046 87.1013 276.09 87.1013 276.133 87.1013C276.176 87.1013 276.219 87.1013 276.263 87.1013C276.306 87.1013 276.349 87.1013 276.391 87.1013C276.434 87.1013 276.477 87.1013 276.52 87.1013C276.562 87.1013 276.605 87.1013 276.647 87.1013C276.69 87.1013 276.732 87.1013 276.775 87.1013C276.817 87.1013 276.859 87.1013 276.901 87.1013C276.943 87.1013 276.985 87.1013 277.027 87.1013C277.069 87.1013 277.11 87.1013 277.152 87.1013C277.194 87.1013 277.235 87.1013 277.277 87.1013C277.318 87.1013 277.359 87.1013 277.4 87.1013C277.442 87.1013 277.483 87.1013 277.524 87.1013C277.565 87.1013 277.606 87.1013 277.646 87.1013C277.687 87.1013 277.728 87.1013 277.768 87.1013C277.809 87.1013 277.849 87.1013 277.89 87.1013C277.93 87.1013 277.97 87.1013 278.01 87.1013C278.05 87.1013 278.09 87.1013 278.13 87.1013C278.17 87.1013 278.21 87.1013 278.249 87.1013C278.289 87.1013 278.329 87.1013 278.368 87.1013C278.407 87.1013 278.447 87.1013 278.486 87.1013C278.525 87.1013 278.564 87.1013 278.603 87.1013C278.642 87.1013 278.681 87.1013 278.72 87.1013C278.758 87.1013 278.797 87.1013 278.836 87.1013C278.874 87.1013 278.913 87.1013 278.951 87.1013C278.989 87.1013 279.027 87.1013 279.065 87.1013C279.103 87.1013 279.141 87.1013 279.179 87.1013C279.217 87.1013 279.255 87.1013 279.292 87.1013C279.33 87.1013 279.367 87.1013 279.405 87.1013C279.442 87.1013 279.479 87.1013 279.516 87.1013C279.553 87.1013 279.59 87.1013 279.627 87.1013C279.664 87.1013 279.701 87.1013 279.737 87.1013C279.774 87.1013 279.81 87.1013 279.847 87.1013C279.883 87.1013 279.92 87.1013 279.956 87.1013C279.992 87.1013 280.028 87.1013 280.064 87.1013C280.1 87.1013 280.135 87.1013 280.171 87.1013C280.207 87.1013 280.242 87.1013 280.278 87.1013C280.313 87.1013 280.348 87.1013 280.383 87.1013C280.419 87.1013 280.454 87.1013 280.489 87.1013C280.523 87.1013 280.558 87.1013 280.593 87.1013C280.628 87.1013 280.662 87.1013 280.696 87.1013C280.731 87.1013 280.765 87.1013 280.799 87.1013C280.833 87.1013 280.867 87.1013 280.901 87.1013C280.935 87.1013 280.969 87.1013 281.003 87.1013C281.036 87.1013 281.07 87.1013 281.103 87.1013C281.137 87.1013 281.17 87.1013 281.203 87.1013C281.236 87.1013 281.269 87.1013 281.302 87.1013C281.335 87.1013 281.368 87.1013 281.4 87.1013C281.433 87.1013 281.465 87.1013 281.498 87.1013C281.53 87.1013 281.562 87.1013 281.594 87.1013C281.626 87.1013 281.658 87.1013 281.69 87.1013C281.722 87.1013 281.754 87.1013 281.785 87.1013C281.817 87.1013 281.848 87.1013 281.879 87.1013C281.911 87.1013 281.942 87.1013 281.973 87.1013C282.004 87.1013 282.035 87.1013 282.066 87.1013C282.096 87.1013 282.127 87.1013 282.157 87.1013C282.188 87.1013 282.218 87.1013 282.248 87.1013C282.279 87.1013 282.309 87.1013 282.339 87.1013C282.369 87.1013 282.398 87.1013 282.428 87.1013C282.458 87.1013 282.487 87.1013 282.517 87.1013C282.546 87.1013 282.575 87.1013 282.604 87.1013C282.633 87.1013 282.662 87.1013 282.691 87.1013C282.72 87.1013 282.749 87.1013 282.777 87.1013C282.806 87.1013 282.834 87.1013 282.862 87.1013C282.891 87.1013 282.919 87.1013 282.947 87.1013C282.975 87.1013 283.003 87.1013 283.03 87.1013C283.058 87.1013 283.086 87.1013 283.113 87.1013C283.141 87.1013 283.168 87.1013 283.195 87.1013C283.222 87.1013 283.249 87.1013 283.276 87.1013C283.303 87.1013 283.329 87.1013 283.356 87.1013C283.383 87.1013 283.409 87.1013 283.435 87.1013C283.462 87.1013 283.488 87.1013 283.514 87.1013C283.54 87.1013 283.565 87.1013 283.591 87.1013C283.617 87.1013 283.642 87.1013 283.668 87.1013C283.693 87.1013 283.718 87.1013 283.744 87.1013C283.769 87.1013 283.794 87.1013 283.818 87.1013C283.843 87.1013 283.868 87.1013 283.892 87.1013C283.917 87.1013 283.941 87.1013 283.965 87.1013C283.99 87.1013 284.014 87.1013 284.038 87.1013C284.062 87.1013 284.085 87.1013 284.109 87.1013C284.133 87.1013 284.156 87.1013 284.179 87.1013C284.203 87.1013 284.226 87.1013 284.249 87.1013C284.272 87.1013 284.295 87.1013 284.317 87.1013C284.34 87.1013 284.363 87.1013 284.385 87.1013C284.407 87.1013 284.43 87.1013 284.452 87.1013C284.474 87.1013 284.496 87.1013 284.518 87.1013C284.539 87.1013 284.561 87.1013 284.582 87.1013C284.604 87.1013 284.625 87.1013 284.646 87.1013C284.668 87.1013 284.689 87.1013 284.709 87.1013C284.73 87.1013 284.751 87.1013 284.771 87.1013C284.792 87.1013 284.812 87.1013 284.833 87.1013C284.853 87.1013 284.873 87.1013 284.893 87.1013C284.913 87.1013 284.932 87.1013 284.952 87.1013C284.972 87.1013 284.991 87.1013 285.01 87.1013C285.03 87.1013 285.049 87.1013 285.068 87.1013C285.087 87.1013 285.105 87.1013 285.124 87.1013V67.1013C285.105 67.1013 285.087 67.1013 285.068 67.1013C285.049 67.1013 285.03 67.1013 285.01 67.1013C284.991 67.1013 284.972 67.1013 284.952 67.1013C284.932 67.1013 284.913 67.1013 284.893 67.1013C284.873 67.1013 284.853 67.1013 284.833 67.1013C284.812 67.1013 284.792 67.1013 284.771 67.1013C284.751 67.1013 284.73 67.1013 284.709 67.1013C284.689 67.1013 284.668 67.1013 284.646 67.1013C284.625 67.1013 284.604 67.1013 284.582 67.1013C284.561 67.1013 284.539 67.1013 284.518 67.1013C284.496 67.1013 284.474 67.1013 284.452 67.1013C284.43 67.1013 284.407 67.1013 284.385 67.1013C284.363 67.1013 284.34 67.1013 284.317 67.1013C284.295 67.1013 284.272 67.1013 284.249 67.1013C284.226 67.1013 284.203 67.1013 284.179 67.1013C284.156 67.1013 284.133 67.1013 284.109 67.1013C284.085 67.1013 284.062 67.1013 284.038 67.1013C284.014 67.1013 283.99 67.1013 283.965 67.1013C283.941 67.1013 283.917 67.1013 283.892 67.1013C283.868 67.1013 283.843 67.1013 283.818 67.1013C283.794 67.1013 283.769 67.1013 283.744 67.1013C283.718 67.1013 283.693 67.1013 283.668 67.1013C283.642 67.1013 283.617 67.1013 283.591 67.1013C283.565 67.1013 283.54 67.1013 283.514 67.1013C283.488 67.1013 283.462 67.1013 283.435 67.1013C283.409 67.1013 283.383 67.1013 283.356 67.1013C283.329 67.1013 283.303 67.1013 283.276 67.1013C283.249 67.1013 283.222 67.1013 283.195 67.1013C283.168 67.1013 283.141 67.1013 283.113 67.1013C283.086 67.1013 283.058 67.1013 283.03 67.1013C283.003 67.1013 282.975 67.1013 282.947 67.1013C282.919 67.1013 282.891 67.1013 282.862 67.1013C282.834 67.1013 282.806 67.1013 282.777 67.1013C282.749 67.1013 282.72 67.1013 282.691 67.1013C282.662 67.1013 282.633 67.1013 282.604 67.1013C282.575 67.1013 282.546 67.1013 282.517 67.1013C282.487 67.1013 282.458 67.1013 282.428 67.1013C282.398 67.1013 282.369 67.1013 282.339 67.1013C282.309 67.1013 282.279 67.1013 282.248 67.1013C282.218 67.1013 282.188 67.1013 282.157 67.1013C282.127 67.1013 282.096 67.1013 282.066 67.1013C282.035 67.1013 282.004 67.1013 281.973 67.1013C281.942 67.1013 281.911 67.1013 281.879 67.1013C281.848 67.1013 281.817 67.1013 281.785 67.1013C281.754 67.1013 281.722 67.1013 281.69 67.1013C281.658 67.1013 281.626 67.1013 281.594 67.1013C281.562 67.1013 281.53 67.1013 281.498 67.1013C281.465 67.1013 281.433 67.1013 281.4 67.1013C281.368 67.1013 281.335 67.1013 281.302 67.1013C281.269 67.1013 281.236 67.1013 281.203 67.1013C281.17 67.1013 281.137 67.1013 281.103 67.1013C281.07 67.1013 281.036 67.1013 281.003 67.1013C280.969 67.1013 280.935 67.1013 280.901 67.1013C280.867 67.1013 280.833 67.1013 280.799 67.1013C280.765 67.1013 280.731 67.1013 280.696 67.1013C280.662 67.1013 280.628 67.1013 280.593 67.1013C280.558 67.1013 280.523 67.1013 280.489 67.1013C280.454 67.1013 280.419 67.1013 280.383 67.1013C280.348 67.1013 280.313 67.1013 280.278 67.1013C280.242 67.1013 280.207 67.1013 280.171 67.1013C280.135 67.1013 280.1 67.1013 280.064 67.1013C280.028 67.1013 279.992 67.1013 279.956 67.1013C279.92 67.1013 279.883 67.1013 279.847 67.1013C279.81 67.1013 279.774 67.1013 279.737 67.1013C279.701 67.1013 279.664 67.1013 279.627 67.1013C279.59 67.1013 279.553 67.1013 279.516 67.1013C279.479 67.1013 279.442 67.1013 279.405 67.1013C279.367 67.1013 279.33 67.1013 279.292 67.1013C279.255 67.1013 279.217 67.1013 279.179 67.1013C279.141 67.1013 279.103 67.1013 279.065 67.1013C279.027 67.1013 278.989 67.1013 278.951 67.1013C278.913 67.1013 278.874 67.1013 278.836 67.1013C278.797 67.1013 278.758 67.1013 278.72 67.1013C278.681 67.1013 278.642 67.1013 278.603 67.1013C278.564 67.1013 278.525 67.1013 278.486 67.1013C278.447 67.1013 278.407 67.1013 278.368 67.1013C278.329 67.1013 278.289 67.1013 278.249 67.1013C278.21 67.1013 278.17 67.1013 278.13 67.1013C278.09 67.1013 278.05 67.1013 278.01 67.1013C277.97 67.1013 277.93 67.1013 277.89 67.1013C277.849 67.1013 277.809 67.1013 277.768 67.1013C277.728 67.1013 277.687 67.1013 277.646 67.1013C277.606 67.1013 277.565 67.1013 277.524 67.1013C277.483 67.1013 277.442 67.1013 277.4 67.1013C277.359 67.1013 277.318 67.1013 277.277 67.1013C277.235 67.1013 277.194 67.1013 277.152 67.1013C277.11 67.1013 277.069 67.1013 277.027 67.1013C276.985 67.1013 276.943 67.1013 276.901 67.1013C276.859 67.1013 276.817 67.1013 276.775 67.1013C276.732 67.1013 276.69 67.1013 276.647 67.1013C276.605 67.1013 276.562 67.1013 276.52 67.1013C276.477 67.1013 276.434 67.1013 276.391 67.1013C276.349 67.1013 276.306 67.1013 276.263 67.1013C276.219 67.1013 276.176 67.1013 276.133 67.1013C276.09 67.1013 276.046 67.1013 276.003 67.1013C275.959 67.1013 275.916 67.1013 275.872 67.1013C275.828 67.1013 275.785 67.1013 275.741 67.1013C275.697 67.1013 275.653 67.1013 275.609 67.1013C275.565 67.1013 275.52 67.1013 275.476 67.1013C275.432 67.1013 275.387 67.1013 275.343 67.1013C275.298 67.1013 275.254 67.1013 275.209 67.1013C275.165 67.1013 275.12 67.1013 275.075 67.1013C275.03 67.1013 274.985 67.1013 274.94 67.1013C274.895 67.1013 274.85 67.1013 274.804 67.1013C274.759 67.1013 274.714 67.1013 274.668 67.1013C274.623 67.1013 274.577 67.1013 274.532 67.1013C274.486 67.1013 274.44 67.1013 274.395 67.1013C274.349 67.1013 274.303 67.1013 274.257 67.1013C274.211 67.1013 274.165 67.1013 274.119 67.1013C274.072 67.1013 274.026 67.1013 273.98 67.1013C273.933 67.1013 273.887 67.1013 273.84 67.1013C273.794 67.1013 273.747 67.1013 273.7 67.1013C273.654 67.1013 273.607 67.1013 273.56 67.1013C273.513 67.1013 273.466 67.1013 273.419 67.1013C273.372 67.1013 273.325 67.1013 273.277 67.1013C273.23 67.1013 273.183 67.1013 273.135 67.1013C273.088 67.1013 273.04 67.1013 272.992 67.1013C272.945 67.1013 272.897 67.1013 272.849 67.1013C272.802 67.1013 272.754 67.1013 272.706 67.1013C272.658 67.1013 272.61 67.1013 272.561 67.1013C272.513 67.1013 272.465 67.1013 272.417 67.1013C272.368 67.1013 272.32 67.1013 272.272 67.1013C272.223 67.1013 272.175 67.1013 272.126 67.1013C272.077 67.1013 272.028 67.1013 271.98 67.1013C271.931 67.1013 271.882 67.1013 271.833 67.1013C271.784 67.1013 271.735 67.1013 271.686 67.1013C271.637 67.1013 271.587 67.1013 271.538 67.1013C271.489 67.1013 271.439 67.1013 271.39 67.1013C271.34 67.1013 271.291 67.1013 271.241 67.1013C271.192 67.1013 271.142 67.1013 271.092 67.1013C271.042 67.1013 270.992 67.1013 270.942 67.1013C270.892 67.1013 270.842 67.1013 270.792 67.1013C270.742 67.1013 270.692 67.1013 270.642 67.1013C270.592 67.1013 270.541 67.1013 270.491 67.1013C270.44 67.1013 270.39 67.1013 270.339 67.1013C270.289 67.1013 270.238 67.1013 270.187 67.1013C270.137 67.1013 270.086 67.1013 270.035 67.1013C269.984 67.1013 269.933 67.1013 269.882 67.1013C269.831 67.1013 269.78 67.1013 269.729 67.1013C269.678 67.1013 269.626 67.1013 269.575 67.1013C269.524 67.1013 269.472 67.1013 269.421 67.1013C269.37 67.1013 269.318 67.1013 269.266 67.1013C269.215 67.1013 269.163 67.1013 269.111 67.1013C269.06 67.1013 269.008 67.1013 268.956 67.1013C268.904 67.1013 268.852 67.1013 268.8 67.1013C268.748 67.1013 268.696 67.1013 268.644 67.1013C268.592 67.1013 268.539 67.1013 268.487 67.1013C268.435 67.1013 268.383 67.1013 268.33 67.1013C268.278 67.1013 268.225 67.1013 268.173 67.1013C268.12 67.1013 268.067 67.1013 268.015 67.1013C267.962 67.1013 267.909 67.1013 267.856 67.1013C267.803 67.1013 267.751 67.1013 267.698 67.1013C267.645 67.1013 267.592 67.1013 267.539 67.1013C267.485 67.1013 267.432 67.1013 267.379 67.1013C267.326 67.1013 267.273 67.1013 267.219 67.1013C267.166 67.1013 267.112 67.1013 267.059 67.1013C267.005 67.1013 266.952 67.1013 266.898 67.1013C266.845 67.1013 266.791 67.1013 266.737 67.1013C266.684 67.1013 266.63 67.1013 266.576 67.1013C266.522 67.1013 266.468 67.1013 266.414 67.1013C266.36 67.1013 266.306 67.1013 266.252 67.1013C266.198 67.1013 266.144 67.1013 266.09 67.1013C266.035 67.1013 265.981 67.1013 265.927 67.1013C265.873 67.1013 265.818 67.1013 265.764 67.1013C265.709 67.1013 265.655 67.1013 265.6 67.1013C265.546 67.1013 265.491 67.1013 265.436 67.1013C265.382 67.1013 265.327 67.1013 265.272 67.1013C265.217 67.1013 265.163 67.1013 265.108 67.1013C265.053 67.1013 264.998 67.1013 264.943 67.1013C264.888 67.1013 264.833 67.1013 264.778 67.1013C264.722 67.1013 264.667 67.1013 264.612 67.1013C264.557 67.1013 264.502 67.1013 264.446 67.1013C264.391 67.1013 264.336 67.1013 264.28 67.1013C264.225 67.1013 264.169 67.1013 264.114 67.1013C264.058 67.1013 264.003 67.1013 263.947 67.1013C263.891 67.1013 263.836 67.1013 263.78 67.1013C263.724 67.1013 263.668 67.1013 263.613 67.1013C263.557 67.1013 263.501 67.1013 263.445 67.1013C263.389 67.1013 263.333 67.1013 263.277 67.1013C263.221 67.1013 263.165 67.1013 263.109 67.1013C263.053 67.1013 262.996 67.1013 262.94 67.1013C262.884 67.1013 262.828 67.1013 262.771 67.1013C262.715 67.1013 262.659 67.1013 262.602 67.1013C262.546 67.1013 262.489 67.1013 262.433 67.1013C262.376 67.1013 262.32 67.1013 262.263 67.1013C262.207 67.1013 262.15 67.1013 262.093 67.1013C262.037 67.1013 261.98 67.1013 261.923 67.1013C261.866 67.1013 261.81 67.1013 261.753 67.1013C261.696 67.1013 261.639 67.1013 261.582 67.1013C261.525 67.1013 261.468 67.1013 261.411 67.1013C261.354 67.1013 261.297 67.1013 261.24 67.1013C261.183 67.1013 261.126 67.1013 261.068 67.1013C261.011 67.1013 260.954 67.1013 260.897 67.1013C260.84 67.1013 260.782 67.1013 260.725 67.1013C260.668 67.1013 260.61 67.1013 260.553 67.1013C260.495 67.1013 260.438 67.1013 260.38 67.1013C260.323 67.1013 260.265 67.1013 260.208 67.1013C260.15 67.1013 260.093 67.1013 260.035 67.1013C259.977 67.1013 259.92 67.1013 259.862 67.1013C259.804 67.1013 259.746 67.1013 259.689 67.1013C259.631 67.1013 259.573 67.1013 259.515 67.1013C259.457 67.1013 259.399 67.1013 259.342 67.1013C259.284 67.1013 259.226 67.1013 259.168 67.1013C259.11 67.1013 259.052 67.1013 258.994 67.1013C258.935 67.1013 258.877 67.1013 258.819 67.1013C258.761 67.1013 258.703 67.1013 258.645 67.1013C258.587 67.1013 258.528 67.1013 258.47 67.1013C258.412 67.1013 258.354 67.1013 258.295 67.1013C258.237 67.1013 258.179 67.1013 258.12 67.1013C258.062 67.1013 258.004 67.1013 257.945 67.1013C257.887 67.1013 257.828 67.1013 257.77 67.1013C257.711 67.1013 257.653 67.1013 257.594 67.1013C257.536 67.1013 257.477 67.1013 257.419 67.1013C257.36 67.1013 257.301 67.1013 257.243 67.1013C257.184 67.1013 257.125 67.1013 257.067 67.1013C257.008 67.1013 256.949 67.1013 256.89 67.1013C256.832 67.1013 256.773 67.1013 256.714 67.1013C256.655 67.1013 256.597 67.1013 256.538 67.1013C256.479 67.1013 256.42 67.1013 256.361 67.1013C256.302 67.1013 256.243 67.1013 256.184 67.1013C256.125 67.1013 256.066 67.1013 256.007 67.1013C255.948 67.1013 255.889 67.1013 255.83 67.1013C255.771 67.1013 255.712 67.1013 255.653 67.1013C255.594 67.1013 255.535 67.1013 255.476 67.1013C255.417 67.1013 255.358 67.1013 255.299 67.1013C255.239 67.1013 255.18 67.1013 255.121 67.1013C255.062 67.1013 255.003 67.1013 254.943 67.1013C254.884 67.1013 254.825 67.1013 254.766 67.1013C254.706 67.1013 254.647 67.1013 254.588 67.1013C254.529 67.1013 254.469 67.1013 254.41 67.1013C254.351 67.1013 254.291 67.1013 254.232 67.1013C254.173 67.1013 254.113 67.1013 254.054 67.1013C253.994 67.1013 253.935 67.1013 253.876 67.1013C253.816 67.1013 253.757 67.1013 253.697 67.1013C253.638 67.1013 253.578 67.1013 253.519 67.1013C253.459 67.1013 253.4 67.1013 253.34 67.1013C253.281 67.1013 253.221 67.1013 253.162 67.1013C253.102 67.1013 253.043 67.1013 252.983 67.1013C252.924 67.1013 252.864 67.1013 252.804 67.1013C252.745 67.1013 252.685 67.1013 252.626 67.1013C252.566 67.1013 252.507 67.1013 252.447 67.1013C252.387 67.1013 252.328 67.1013 252.268 67.1013C252.208 67.1013 252.149 67.1013 252.089 67.1013C252.029 67.1013 251.97 67.1013 251.91 67.1013C251.851 67.1013 251.791 67.1013 251.731 67.1013C251.671 67.1013 251.612 67.1013 251.552 67.1013C251.492 67.1013 251.433 67.1013 251.373 67.1013C251.313 67.1013 251.254 67.1013 251.194 67.1013C251.134 67.1013 251.074 67.1013 251.015 67.1013C250.955 67.1013 250.895 67.1013 250.836 67.1013C250.776 67.1013 250.716 67.1013 250.656 67.1013C250.597 67.1013 250.537 67.1013 250.477 67.1013C250.417 67.1013 250.358 67.1013 250.298 67.1013C250.238 67.1013 250.178 67.1013 250.119 67.1013C250.059 67.1013 249.999 67.1013 249.939 67.1013C249.88 67.1013 249.82 67.1013 249.76 67.1013C249.7 67.1013 249.641 67.1013 249.581 67.1013C249.521 67.1013 249.461 67.1013 249.402 67.1013C249.342 67.1013 249.282 67.1013 249.222 67.1013C249.163 67.1013 249.103 67.1013 249.043 67.1013C248.983 67.1013 248.924 67.1013 248.864 67.1013C248.804 67.1013 248.744 67.1013 248.685 67.1013C248.625 67.1013 248.565 67.1013 248.505 67.1013C248.446 67.1013 248.386 67.1013 248.326 67.1013C248.267 67.1013 248.207 67.1013 248.147 67.1013C248.087 67.1013 248.028 67.1013 247.968 67.1013C247.908 67.1013 247.849 67.1013 247.789 67.1013C247.729 67.1013 247.67 67.1013 247.61 67.1013C247.55 67.1013 247.491 67.1013 247.431 67.1013C247.371 67.1013 247.312 67.1013 247.252 67.1013C247.193 67.1013 247.133 67.1013 247.073 67.1013C247.014 67.1013 246.954 67.1013 246.894 67.1013C246.835 67.1013 246.775 67.1013 246.716 67.1013C246.656 67.1013 246.597 67.1013 246.537 67.1013C246.477 67.1013 246.418 67.1013 246.358 67.1013C246.299 67.1013 246.239 67.1013 246.18 67.1013C246.12 67.1013 246.061 67.1013 246.001 67.1013C245.942 67.1013 245.882 67.1013 245.823 67.1013C245.764 67.1013 245.704 67.1013 245.645 67.1013C245.585 67.1013 245.526 67.1013 245.466 67.1013C245.407 67.1013 245.348 67.1013 245.288 67.1013C245.229 67.1013 245.17 67.1013 245.11 67.1013C245.051 67.1013 244.992 67.1013 244.932 67.1013C244.873 67.1013 244.814 67.1013 244.755 67.1013C244.695 67.1013 244.636 67.1013 244.577 67.1013C244.518 67.1013 244.458 67.1013 244.399 67.1013C244.34 67.1013 244.281 67.1013 244.222 67.1013C244.162 67.1013 244.103 67.1013 244.044 67.1013C243.985 67.1013 243.926 67.1013 243.867 67.1013C243.808 67.1013 243.749 67.1013 243.69 67.1013C243.631 67.1013 243.572 67.1013 243.513 67.1013C243.454 67.1013 243.395 67.1013 243.336 67.1013C243.277 67.1013 243.218 67.1013 243.159 67.1013C243.1 67.1013 243.041 67.1013 242.983 67.1013C242.924 67.1013 242.865 67.1013 242.806 67.1013C242.747 67.1013 242.688 67.1013 242.63 67.1013C242.571 67.1013 242.512 67.1013 242.454 67.1013C242.395 67.1013 242.336 67.1013 242.278 67.1013C242.219 67.1013 242.16 67.1013 242.102 67.1013C242.043 67.1013 241.985 67.1013 241.926 67.1013C241.867 67.1013 241.809 67.1013 241.75 67.1013C241.692 67.1013 241.634 67.1013 241.575 67.1013C241.517 67.1013 241.458 67.1013 241.4 67.1013C241.342 67.1013 241.283 67.1013 241.225 67.1013C241.167 67.1013 241.108 67.1013 241.05 67.1013C240.992 67.1013 240.934 67.1013 240.875 67.1013C240.817 67.1013 240.759 67.1013 240.701 67.1013C240.643 67.1013 240.585 67.1013 240.527 67.1013C240.469 67.1013 240.411 67.1013 240.353 67.1013C240.295 67.1013 240.237 67.1013 240.179 67.1013C240.121 67.1013 240.063 67.1013 240.005 67.1013C239.947 67.1013 239.889 67.1013 239.832 67.1013C239.774 67.1013 239.716 67.1013 239.658 67.1013C239.601 67.1013 239.543 67.1013 239.485 67.1013C239.428 67.1013 239.37 67.1013 239.312 67.1013C239.255 67.1013 239.197 67.1013 239.14 67.1013C239.082 67.1013 239.025 67.1013 238.967 67.1013C238.91 67.1013 238.853 67.1013 238.795 67.1013C238.738 67.1013 238.681 67.1013 238.623 67.1013C238.566 67.1013 238.509 67.1013 238.452 67.1013C238.395 67.1013 238.337 67.1013 238.28 67.1013C238.223 67.1013 238.166 67.1013 238.109 67.1013C238.052 67.1013 237.995 67.1013 237.938 67.1013C237.881 67.1013 237.824 67.1013 237.768 67.1013C237.711 67.1013 237.654 67.1013 237.597 67.1013C237.54 67.1013 237.484 67.1013 237.427 67.1013C237.37 67.1013 237.314 67.1013 237.257 67.1013C237.2 67.1013 237.144 67.1013 237.087 67.1013C237.031 67.1013 236.974 67.1013 236.918 67.1013C236.862 67.1013 236.805 67.1013 236.749 67.1013C236.693 67.1013 236.636 67.1013 236.58 67.1013C236.524 67.1013 236.468 67.1013 236.412 67.1013C236.355 67.1013 236.299 67.1013 236.243 67.1013C236.187 67.1013 236.131 67.1013 236.075 67.1013C236.019 67.1013 235.964 67.1013 235.908 67.1013C235.852 67.1013 235.796 67.1013 235.74 67.1013C235.685 67.1013 235.629 67.1013 235.573 67.1013C235.518 67.1013 235.462 67.1013 235.407 67.1013C235.351 67.1013 235.295 67.1013 235.24 67.1013C235.185 67.1013 235.129 67.1013 235.074 67.1013C235.019 67.1013 234.963 67.1013 234.908 67.1013C234.853 67.1013 234.798 67.1013 234.743 67.1013C234.687 67.1013 234.632 67.1013 234.577 67.1013C234.522 67.1013 234.467 67.1013 234.413 67.1013C234.358 67.1013 234.303 67.1013 234.248 67.1013C234.193 67.1013 234.139 67.1013 234.084 67.1013C234.029 67.1013 233.975 67.1013 233.92 67.1013C233.865 67.1013 233.811 67.1013 233.757 67.1013C233.702 67.1013 233.648 67.1013 233.593 67.1013C233.539 67.1013 233.485 67.1013 233.431 67.1013C233.376 67.1013 233.322 67.1013 233.268 67.1013C233.214 67.1013 233.16 67.1013 233.106 67.1013C233.052 67.1013 232.998 67.1013 232.944 67.1013C232.89 67.1013 232.837 67.1013 232.783 67.1013C232.729 67.1013 232.676 67.1013 232.622 67.1013C232.568 67.1013 232.515 67.1013 232.461 67.1013C232.408 67.1013 232.354 67.1013 232.301 67.1013C232.248 67.1013 232.194 67.1013 232.141 67.1013C232.088 67.1013 232.035 67.1013 231.982 67.1013C231.929 67.1013 231.876 67.1013 231.823 67.1013C231.77 67.1013 231.717 67.1013 231.664 67.1013C231.611 67.1013 231.558 67.1013 231.506 67.1013C231.453 67.1013 231.4 67.1013 231.348 67.1013C231.295 67.1013 231.243 67.1013 231.19 67.1013C231.138 67.1013 231.085 67.1013 231.033 67.1013C230.981 67.1013 230.929 67.1013 230.876 67.1013C230.824 67.1013 230.772 67.1013 230.72 67.1013C230.668 67.1013 230.616 67.1013 230.564 67.1013C230.512 67.1013 230.461 67.1013 230.409 67.1013C230.357 67.1013 230.305 67.1013 230.254 67.1013C230.202 67.1013 230.151 67.1013 230.099 67.1013C230.048 67.1013 229.996 67.1013 229.945 67.1013C229.894 67.1013 229.842 67.1013 229.791 67.1013C229.74 67.1013 229.689 67.1013 229.638 67.1013C229.587 67.1013 229.536 67.1013 229.485 67.1013C229.434 67.1013 229.384 67.1013 229.333 67.1013C229.282 67.1013 229.231 67.1013 229.181 67.1013C229.13 67.1013 229.08 67.1013 229.029 67.1013C228.979 67.1013 228.929 67.1013 228.878 67.1013C228.828 67.1013 228.778 67.1013 228.728 67.1013C228.678 67.1013 228.628 67.1013 228.578 67.1013C228.528 67.1013 228.478 67.1013 228.428 67.1013C228.378 67.1013 228.329 67.1013 228.279 67.1013C228.229 67.1013 228.18 67.1013 228.13 67.1013C228.081 67.1013 228.031 67.1013 227.982 67.1013C227.933 67.1013 227.884 67.1013 227.834 67.1013C227.785 67.1013 227.736 67.1013 227.687 67.1013C227.638 67.1013 227.589 67.1013 227.541 67.1013C227.492 67.1013 227.443 67.1013 227.394 67.1013C227.346 67.1013 227.297 67.1013 227.249 67.1013C227.2 67.1013 227.152 67.1013 227.103 67.1013C227.055 67.1013 227.007 67.1013 226.959 67.1013C226.911 67.1013 226.863 67.1013 226.815 67.1013C226.767 67.1013 226.719 67.1013 226.671 67.1013C226.623 67.1013 226.575 67.1013 226.528 67.1013C226.48 67.1013 226.433 67.1013 226.385 67.1013C226.338 67.1013 226.29 67.1013 226.243 67.1013C226.196 67.1013 226.149 67.1013 226.101 67.1013C226.054 67.1013 226.007 67.1013 225.96 67.1013C225.913 67.1013 225.867 67.1013 225.82 67.1013C225.773 67.1013 225.726 67.1013 225.68 67.1013C225.633 67.1013 225.587 67.1013 225.541 67.1013C225.494 67.1013 225.448 67.1013 225.402 67.1013C225.355 67.1013 225.309 67.1013 225.263 67.1013C225.217 67.1013 225.171 67.1013 225.126 67.1013C225.08 67.1013 225.034 67.1013 224.988 67.1013C224.943 67.1013 224.897 67.1013 224.852 67.1013C224.806 67.1013 224.761 67.1013 224.716 67.1013C224.67 67.1013 224.625 67.1013 224.58 67.1013C224.535 67.1013 224.49 67.1013 224.445 67.1013C224.4 67.1013 224.356 67.1013 224.311 67.1013C224.266 67.1013 224.222 67.1013 224.177 67.1013C224.133 67.1013 224.088 67.1013 224.044 67.1013C224 67.1013 223.956 67.1013 223.912 67.1013C223.867 67.1013 223.823 67.1013 223.78 67.1013C223.736 67.1013 223.692 67.1013 223.648 67.1013C223.604 67.1013 223.561 67.1013 223.517 67.1013C223.474 67.1013 223.431 67.1013 223.387 67.1013C223.344 67.1013 223.301 67.1013 223.258 67.1013C223.215 67.1013 223.172 67.1013 223.129 67.1013C223.086 67.1013 223.043 67.1013 223 67.1013C222.958 67.1013 222.915 67.1013 222.873 67.1013C222.83 67.1013 222.788 67.1013 222.746 67.1013C222.703 67.1013 222.661 67.1013 222.619 67.1013C222.577 67.1013 222.535 67.1013 222.493 67.1013C222.452 67.1013 222.41 67.1013 222.368 67.1013C222.327 67.1013 222.285 67.1013 222.244 67.1013C222.202 67.1013 222.161 67.1013 222.12 67.1013C222.079 67.1013 222.037 67.1013 221.997 67.1013C221.956 67.1013 221.915 67.1013 221.874 67.1013C221.833 67.1013 221.793 67.1013 221.752 67.1013C221.711 67.1013 221.671 67.1013 221.631 67.1013C221.59 67.1013 221.55 67.1013 221.51 67.1013C221.47 67.1013 221.43 67.1013 221.39 67.1013C221.35 67.1013 221.31 67.1013 221.271 67.1013C221.231 67.1013 221.192 67.1013 221.152 67.1013C221.113 67.1013 221.073 67.1013 221.034 67.1013C220.995 67.1013 220.956 67.1013 220.917 67.1013C220.878 67.1013 220.839 67.1013 220.8 67.1013C220.762 67.1013 220.723 67.1013 220.685 67.1013C220.646 67.1013 220.608 67.1013 220.569 67.1013C220.531 67.1013 220.493 67.1013 220.455 67.1013C220.417 67.1013 220.379 67.1013 220.341 67.1013C220.303 67.1013 220.266 67.1013 220.228 67.1013C220.19 67.1013 220.153 67.1013 220.116 67.1013C220.078 67.1013 220.041 67.1013 220.004 67.1013C219.967 67.1013 219.93 67.1013 219.893 67.1013C219.856 67.1013 219.819 67.1013 219.783 67.1013C219.746 67.1013 219.71 67.1013 219.673 67.1013C219.637 67.1013 219.601 67.1013 219.565 67.1013C219.528 67.1013 219.492 67.1013 219.457 67.1013C219.421 67.1013 219.385 67.1013 219.349 67.1013C219.314 67.1013 219.278 67.1013 219.243 67.1013C219.207 67.1013 219.172 67.1013 219.137 67.1013C219.102 67.1013 219.067 67.1013 219.032 67.1013C218.997 67.1013 218.962 67.1013 218.927 67.1013C218.893 67.1013 218.858 67.1013 218.824 67.1013C218.789 67.1013 218.755 67.1013 218.721 67.1013C218.687 67.1013 218.653 67.1013 218.619 67.1013C218.585 67.1013 218.551 67.1013 218.518 67.1013C218.484 67.1013 218.45 67.1013 218.417 67.1013C218.384 67.1013 218.35 67.1013 218.317 67.1013C218.284 67.1013 218.251 67.1013 218.218 67.1013C218.185 67.1013 218.153 67.1013 218.12 67.1013C218.087 67.1013 218.055 67.1013 218.023 67.1013C217.99 67.1013 217.958 67.1013 217.926 67.1013C217.894 67.1013 217.862 67.1013 217.83 67.1013C217.798 67.1013 217.767 67.1013 217.735 67.1013C217.704 67.1013 217.672 67.1013 217.641 67.1013C217.61 67.1013 217.578 67.1013 217.547 67.1013C217.516 67.1013 217.485 67.1013 217.455 67.1013C217.424 67.1013 217.393 67.1013 217.363 67.1013C217.332 67.1013 217.302 67.1013 217.272 67.1013C217.242 67.1013 217.212 67.1013 217.182 67.1013C217.152 67.1013 217.122 67.1013 217.092 67.1013C217.063 67.1013 217.033 67.1013 217.004 67.1013C216.974 67.1013 216.945 67.1013 216.916 67.1013C216.887 67.1013 216.858 67.1013 216.829 67.1013C216.8 67.1013 216.772 67.1013 216.743 67.1013C216.714 67.1013 216.686 67.1013 216.658 67.1013C216.629 67.1013 216.601 67.1013 216.573 67.1013C216.545 67.1013 216.518 67.1013 216.49 67.1013C216.462 67.1013 216.435 67.1013 216.407 67.1013C216.38 67.1013 216.352 67.1013 216.325 67.1013C216.298 67.1013 216.271 67.1013 216.244 67.1013C216.217 67.1013 216.191 67.1013 216.164 67.1013C216.138 67.1013 216.111 67.1013 216.085 67.1013C216.059 67.1013 216.033 67.1013 216.007 67.1013C215.981 67.1013 215.955 67.1013 215.929 67.1013C215.903 67.1013 215.878 67.1013 215.852 67.1013C215.827 67.1013 215.802 67.1013 215.777 67.1013C215.752 67.1013 215.727 67.1013 215.702 67.1013C215.677 67.1013 215.652 67.1013 215.628 67.1013C215.603 67.1013 215.579 67.1013 215.555 67.1013C215.531 67.1013 215.506 67.1013 215.483 67.1013C215.459 67.1013 215.435 67.1013 215.411 67.1013C215.388 67.1013 215.364 67.1013 215.341 67.1013C215.318 67.1013 215.294 67.1013 215.271 67.1013C215.248 67.1013 215.226 67.1013 215.203 67.1013C215.18 67.1013 215.158 67.1013 215.135 67.1013C215.113 67.1013 215.091 67.1013 215.068 67.1013C215.046 67.1013 215.024 67.1013 215.003 67.1013C214.981 67.1013 214.959 67.1013 214.938 67.1013C214.916 67.1013 214.895 67.1013 214.874 67.1013C214.853 67.1013 214.832 67.1013 214.811 67.1013C214.79 67.1013 214.769 67.1013 214.749 67.1013C214.728 67.1013 214.708 67.1013 214.688 67.1013C214.667 67.1013 214.647 67.1013 214.627 67.1013C214.608 67.1013 214.588 67.1013 214.568 67.1013C214.549 67.1013 214.529 67.1013 214.51 67.1013C214.491 67.1013 214.472 67.1013 214.453 67.1013C214.434 67.1013 214.415 67.1013 214.396 67.1013V87.1013Z" fill="#00223B" mask="url(#path-4-inside-2_196_1687)"/>
</svg>
