<svg width="16" height="16" viewBox="0 0 16 16" fill="none" xmlns="http://www.w3.org/2000/svg">
<g clip-path="url(#clip0_16_9)">
<path d="M11.251 0.0679992C11.3489 0.124738 11.4246 0.212989 11.4658 0.318337C11.5071 0.423684 11.5114 0.5399 11.478 0.647999L9.677 6.5H13C13.0977 6.49996 13.1932 6.52852 13.2748 6.58215C13.3564 6.63578 13.4205 6.71214 13.4592 6.80179C13.4979 6.89145 13.5096 6.99047 13.4926 7.08665C13.4757 7.18283 13.431 7.27194 13.364 7.343L5.364 15.843C5.28659 15.9253 5.18359 15.979 5.07177 15.9953C4.95996 16.0115 4.84593 15.9894 4.74827 15.9326C4.65061 15.8758 4.57508 15.7875 4.53399 15.6823C4.4929 15.577 4.48868 15.461 4.522 15.353L6.323 9.5H3C2.90235 9.50004 2.80682 9.47148 2.72521 9.41785C2.6436 9.36422 2.57948 9.28786 2.54077 9.19821C2.50205 9.10855 2.49044 9.00952 2.50737 8.91335C2.52429 8.81717 2.56901 8.72805 2.636 8.657L10.636 0.156999C10.7133 0.0747984 10.8162 0.0211678 10.9278 0.00482779C11.0395 -0.0115123 11.1534 0.0103991 11.251 0.0669992V0.0679992Z" fill="black"/>
</g>
<defs>
<clipPath id="clip0_16_9">
<rect width="16" height="16" fill="white"/>
</clipPath>
</defs>
</svg>
