<svg width="75" height="32" viewBox="0 0 75 32" fill="none" xmlns="http://www.w3.org/2000/svg">
<g style="mix-blend-mode:multiply" clip-path="url(#clip0_81_1350)">
<path d="M62.5 16.7999L60.7 9.8999H57.7L55.8 16.6999L54.3 9.8999H51.2L54.3 22.4999H57.2L59.1 15.2999L61 22.4999H64L67.1 9.8999H64.1L62.5 16.7999Z" fill="black"/>
<path d="M59.1 0C50.5 0 43.5 7 43.5 15.6C43.5 24.2 50.5 31.2 59.1 31.2C67.7 31.2 74.7 24.2 74.7 15.6C74.7 7 67.7 0 59.1 0ZM59.1 27.1C52.7 27.1 47.6 21.9 47.6 15.6C47.6 9.2 52.8 4 59.1 4C65.5 4 70.6 9.2 70.6 15.5C70.7 21.9 65.5 27.1 59.1 27.1Z" fill="black"/>
<path d="M15.6 26.4C9.6 26.4 4.7 21.5 4.7 15.5C4.7 9.5 9.5 4.7 15.6 4.7C16.1 4.7 16.6 4.7 17.1 4.8V0.1C16.6 0.1 16.1 0 15.6 0C7 0 0 7 0 15.6C0 24.2 7 31.2 15.6 31.2C16.1 31.2 16.6 31.2 17.1 31.1V26.4C16.6 26.4 16.1 26.4 15.6 26.4Z" fill="black"/>
<path d="M39 0C30.4 0 23.4 7 23.4 15.6V31.2H28.1V17.9H37.4C37.4 17.9 37.4 14.8 37.4 13.2C34.4 13.2 31.4 13.2 28.3 13.2C29.4 8.3 33.7 4.7 38.9 4.7C39.4 4.7 39.9 4.7 40.4 4.8V0.1C40.1 0 39.5 0 39 0Z" fill="black"/>
</g>
<defs>
<clipPath id="clip0_81_1350">
<rect width="74.7" height="31.1" fill="white"/>
</clipPath>
</defs>
</svg>
