<svg width="872" height="26" viewBox="0 0 872 26" fill="none" xmlns="http://www.w3.org/2000/svg">
<g style="mix-blend-mode:multiply" opacity="0.5" clip-path="url(#clip0_147_1133)">
<path d="M2.39999 14.2V0" stroke="black" stroke-miterlimit="10"/>
<path d="M74.4 14.2V0" stroke="black" stroke-miterlimit="10"/>
<path d="M6.89999 7.1V0" stroke="black" stroke-miterlimit="10"/>
<path d="M11.4 7.1V0" stroke="black" stroke-miterlimit="10"/>
<path d="M15.9 7.1V0" stroke="black" stroke-miterlimit="10"/>
<path d="M24.9 7.1V0" stroke="black" stroke-miterlimit="10"/>
<path d="M29.4 7.1V0" stroke="black" stroke-miterlimit="10"/>
<path d="M33.9 7.1V0" stroke="black" stroke-miterlimit="10"/>
<path d="M42.9 7.1V0" stroke="black" stroke-miterlimit="10"/>
<path d="M47.4 7.1V0" stroke="black" stroke-miterlimit="10"/>
<path d="M51.9 7.1V0" stroke="black" stroke-miterlimit="10"/>
<path d="M60.9 7.1V0" stroke="black" stroke-miterlimit="10"/>
<path d="M65.4 7.1V0" stroke="black" stroke-miterlimit="10"/>
<path d="M69.9 7.1V0" stroke="black" stroke-miterlimit="10"/>
<path d="M38.4 12.2V0" stroke="black" stroke-miterlimit="10"/>
<path d="M56.4 10.1V0" stroke="black" stroke-miterlimit="10"/>
<path d="M20.4 10.1V0" stroke="black" stroke-miterlimit="10"/>
<path d="M146.4 14.2V0" stroke="black" stroke-miterlimit="10"/>
<path d="M78.9 7.1V0" stroke="black" stroke-miterlimit="10"/>
<path d="M83.4 7.1V0" stroke="black" stroke-miterlimit="10"/>
<path d="M87.9 7.1V0" stroke="black" stroke-miterlimit="10"/>
<path d="M96.9 7.1V0" stroke="black" stroke-miterlimit="10"/>
<path d="M101.4 7.1V0" stroke="black" stroke-miterlimit="10"/>
<path d="M105.9 7.1V0" stroke="black" stroke-miterlimit="10"/>
<path d="M114.9 7.1V0" stroke="black" stroke-miterlimit="10"/>
<path d="M119.4 7.1V0" stroke="black" stroke-miterlimit="10"/>
<path d="M123.9 7.1V0" stroke="black" stroke-miterlimit="10"/>
<path d="M132.9 7.1V0" stroke="black" stroke-miterlimit="10"/>
<path d="M137.4 7.1V0" stroke="black" stroke-miterlimit="10"/>
<path d="M141.9 7.1V0" stroke="black" stroke-miterlimit="10"/>
<path d="M110.4 12.2V0" stroke="black" stroke-miterlimit="10"/>
<path d="M128.4 10.1V0" stroke="black" stroke-miterlimit="10"/>
<path d="M92.4 10.1V0" stroke="black" stroke-miterlimit="10"/>
<path d="M218.4 14.2V0" stroke="black" stroke-miterlimit="10"/>
<path d="M150.9 7.1V0" stroke="black" stroke-miterlimit="10"/>
<path d="M155.4 7.1V0" stroke="black" stroke-miterlimit="10"/>
<path d="M159.9 7.1V0" stroke="black" stroke-miterlimit="10"/>
<path d="M168.9 7.1V0" stroke="black" stroke-miterlimit="10"/>
<path d="M173.4 7.1V0" stroke="black" stroke-miterlimit="10"/>
<path d="M177.9 7.1V0" stroke="black" stroke-miterlimit="10"/>
<path d="M186.9 7.1V0" stroke="black" stroke-miterlimit="10"/>
<path d="M191.4 7.1V0" stroke="black" stroke-miterlimit="10"/>
<path d="M195.9 7.1V0" stroke="black" stroke-miterlimit="10"/>
<path d="M204.9 7.1V0" stroke="black" stroke-miterlimit="10"/>
<path d="M209.4 7.1V0" stroke="black" stroke-miterlimit="10"/>
<path d="M213.9 7.1V0" stroke="black" stroke-miterlimit="10"/>
<path d="M182.4 12.2V0" stroke="black" stroke-miterlimit="10"/>
<path d="M200.4 10.1V0" stroke="black" stroke-miterlimit="10"/>
<path d="M164.4 10.1V0" stroke="black" stroke-miterlimit="10"/>
<path d="M290.4 14.2V0" stroke="black" stroke-miterlimit="10"/>
<path d="M222.9 7.1V0" stroke="black" stroke-miterlimit="10"/>
<path d="M227.4 7.1V0" stroke="black" stroke-miterlimit="10"/>
<path d="M231.9 7.1V0" stroke="black" stroke-miterlimit="10"/>
<path d="M240.9 7.1V0" stroke="black" stroke-miterlimit="10"/>
<path d="M245.4 7.1V0" stroke="black" stroke-miterlimit="10"/>
<path d="M249.9 7.1V0" stroke="black" stroke-miterlimit="10"/>
<path d="M258.9 7.1V0" stroke="black" stroke-miterlimit="10"/>
<path d="M263.4 7.1V0" stroke="black" stroke-miterlimit="10"/>
<path d="M267.9 7.1V0" stroke="black" stroke-miterlimit="10"/>
<path d="M276.9 7.1V0" stroke="black" stroke-miterlimit="10"/>
<path d="M281.4 7.1V0" stroke="black" stroke-miterlimit="10"/>
<path d="M285.9 7.1V0" stroke="black" stroke-miterlimit="10"/>
<path d="M254.4 12.2V0" stroke="black" stroke-miterlimit="10"/>
<path d="M272.4 10.1V0" stroke="black" stroke-miterlimit="10"/>
<path d="M236.4 10.1V0" stroke="black" stroke-miterlimit="10"/>
<path d="M362.4 14.2V0" stroke="black" stroke-miterlimit="10"/>
<path d="M294.9 7.1V0" stroke="black" stroke-miterlimit="10"/>
<path d="M299.4 7.1V0" stroke="black" stroke-miterlimit="10"/>
<path d="M303.9 7.1V0" stroke="black" stroke-miterlimit="10"/>
<path d="M312.9 7.1V0" stroke="black" stroke-miterlimit="10"/>
<path d="M317.4 7.1V0" stroke="black" stroke-miterlimit="10"/>
<path d="M321.9 7.1V0" stroke="black" stroke-miterlimit="10"/>
<path d="M330.9 7.1V0" stroke="black" stroke-miterlimit="10"/>
<path d="M335.4 7.1V0" stroke="black" stroke-miterlimit="10"/>
<path d="M339.9 7.1V0" stroke="black" stroke-miterlimit="10"/>
<path d="M348.9 7.1V0" stroke="black" stroke-miterlimit="10"/>
<path d="M353.4 7.1V0" stroke="black" stroke-miterlimit="10"/>
<path d="M357.9 7.1V0" stroke="black" stroke-miterlimit="10"/>
<path d="M326.4 12.2V0" stroke="black" stroke-miterlimit="10"/>
<path d="M344.4 10.1V0" stroke="black" stroke-miterlimit="10"/>
<path d="M308.4 10.1V0" stroke="black" stroke-miterlimit="10"/>
<path d="M434.4 14.2V0" stroke="black" stroke-miterlimit="10"/>
<path d="M366.9 7.1V0" stroke="black" stroke-miterlimit="10"/>
<path d="M371.4 7.1V0" stroke="black" stroke-miterlimit="10"/>
<path d="M375.9 7.1V0" stroke="black" stroke-miterlimit="10"/>
<path d="M384.9 7.1V0" stroke="black" stroke-miterlimit="10"/>
<path d="M389.4 7.1V0" stroke="black" stroke-miterlimit="10"/>
<path d="M393.9 7.1V0" stroke="black" stroke-miterlimit="10"/>
<path d="M402.9 7.1V0" stroke="black" stroke-miterlimit="10"/>
<path d="M407.4 7.1V0" stroke="black" stroke-miterlimit="10"/>
<path d="M411.9 7.1V0" stroke="black" stroke-miterlimit="10"/>
<path d="M420.9 7.1V0" stroke="black" stroke-miterlimit="10"/>
<path d="M425.4 7.1V0" stroke="black" stroke-miterlimit="10"/>
<path d="M429.9 7.1V0" stroke="black" stroke-miterlimit="10"/>
<path d="M398.4 12.2V0" stroke="black" stroke-miterlimit="10"/>
<path d="M416.4 10.1V0" stroke="black" stroke-miterlimit="10"/>
<path d="M380.4 10.1V0" stroke="black" stroke-miterlimit="10"/>
<path d="M506.4 14.2V0" stroke="black" stroke-miterlimit="10"/>
<path d="M438.9 7.1V0" stroke="black" stroke-miterlimit="10"/>
<path d="M443.4 7.1V0" stroke="black" stroke-miterlimit="10"/>
<path d="M447.9 7.1V0" stroke="black" stroke-miterlimit="10"/>
<path d="M456.9 7.1V0" stroke="black" stroke-miterlimit="10"/>
<path d="M461.4 7.1V0" stroke="black" stroke-miterlimit="10"/>
<path d="M465.9 7.1V0" stroke="black" stroke-miterlimit="10"/>
<path d="M474.9 7.1V0" stroke="black" stroke-miterlimit="10"/>
<path d="M479.4 7.1V0" stroke="black" stroke-miterlimit="10"/>
<path d="M483.9 7.1V0" stroke="black" stroke-miterlimit="10"/>
<path d="M492.9 7.1V0" stroke="black" stroke-miterlimit="10"/>
<path d="M497.4 7.1V0" stroke="black" stroke-miterlimit="10"/>
<path d="M501.9 7.1V0" stroke="black" stroke-miterlimit="10"/>
<path d="M470.4 12.2V0" stroke="black" stroke-miterlimit="10"/>
<path d="M488.4 10.1V0" stroke="black" stroke-miterlimit="10"/>
<path d="M452.4 10.1V0" stroke="black" stroke-miterlimit="10"/>
<path d="M578.4 14.2V0" stroke="black" stroke-miterlimit="10"/>
<path d="M510.9 7.1V0" stroke="black" stroke-miterlimit="10"/>
<path d="M515.4 7.1V0" stroke="black" stroke-miterlimit="10"/>
<path d="M519.9 7.1V0" stroke="black" stroke-miterlimit="10"/>
<path d="M528.9 7.1V0" stroke="black" stroke-miterlimit="10"/>
<path d="M533.4 7.1V0" stroke="black" stroke-miterlimit="10"/>
<path d="M537.9 7.1V0" stroke="black" stroke-miterlimit="10"/>
<path d="M546.9 7.1V0" stroke="black" stroke-miterlimit="10"/>
<path d="M551.4 7.1V0" stroke="black" stroke-miterlimit="10"/>
<path d="M555.9 7.1V0" stroke="black" stroke-miterlimit="10"/>
<path d="M564.9 7.1V0" stroke="black" stroke-miterlimit="10"/>
<path d="M569.4 7.1V0" stroke="black" stroke-miterlimit="10"/>
<path d="M573.9 7.1V0" stroke="black" stroke-miterlimit="10"/>
<path d="M542.4 12.2V0" stroke="black" stroke-miterlimit="10"/>
<path d="M560.4 10.1V0" stroke="black" stroke-miterlimit="10"/>
<path d="M524.4 10.1V0" stroke="black" stroke-miterlimit="10"/>
<path d="M650.4 14.2V0" stroke="black" stroke-miterlimit="10"/>
<path d="M582.9 7.1V0" stroke="black" stroke-miterlimit="10"/>
<path d="M587.4 7.1V0" stroke="black" stroke-miterlimit="10"/>
<path d="M591.9 7.1V0" stroke="black" stroke-miterlimit="10"/>
<path d="M600.9 7.1V0" stroke="black" stroke-miterlimit="10"/>
<path d="M605.4 7.1V0" stroke="black" stroke-miterlimit="10"/>
<path d="M609.9 7.1V0" stroke="black" stroke-miterlimit="10"/>
<path d="M618.9 7.1V0" stroke="black" stroke-miterlimit="10"/>
<path d="M623.4 7.1V0" stroke="black" stroke-miterlimit="10"/>
<path d="M627.9 7.1V0" stroke="black" stroke-miterlimit="10"/>
<path d="M636.9 7.1V0" stroke="black" stroke-miterlimit="10"/>
<path d="M641.4 7.1V0" stroke="black" stroke-miterlimit="10"/>
<path d="M645.9 7.1V0" stroke="black" stroke-miterlimit="10"/>
<path d="M614.4 12.2V0" stroke="black" stroke-miterlimit="10"/>
<path d="M632.4 10.1V0" stroke="black" stroke-miterlimit="10"/>
<path d="M596.4 10.1V0" stroke="black" stroke-miterlimit="10"/>
<path d="M722.4 14.2V0" stroke="black" stroke-miterlimit="10"/>
<path d="M654.9 7.1V0" stroke="black" stroke-miterlimit="10"/>
<path d="M659.4 7.1V0" stroke="black" stroke-miterlimit="10"/>
<path d="M663.9 7.1V0" stroke="black" stroke-miterlimit="10"/>
<path d="M672.9 7.1V0" stroke="black" stroke-miterlimit="10"/>
<path d="M677.4 7.1V0" stroke="black" stroke-miterlimit="10"/>
<path d="M681.9 7.1V0" stroke="black" stroke-miterlimit="10"/>
<path d="M690.9 7.1V0" stroke="black" stroke-miterlimit="10"/>
<path d="M695.4 7.1V0" stroke="black" stroke-miterlimit="10"/>
<path d="M699.9 7.1V0" stroke="black" stroke-miterlimit="10"/>
<path d="M708.9 7.1V0" stroke="black" stroke-miterlimit="10"/>
<path d="M713.4 7.1V0" stroke="black" stroke-miterlimit="10"/>
<path d="M717.9 7.1V0" stroke="black" stroke-miterlimit="10"/>
<path d="M686.4 12.2V0" stroke="black" stroke-miterlimit="10"/>
<path d="M704.4 10.1V0" stroke="black" stroke-miterlimit="10"/>
<path d="M668.4 10.1V0" stroke="black" stroke-miterlimit="10"/>
<path d="M794.4 14.2V0" stroke="black" stroke-miterlimit="10"/>
<path d="M726.9 7.1V0" stroke="black" stroke-miterlimit="10"/>
<path d="M731.4 7.1V0" stroke="black" stroke-miterlimit="10"/>
<path d="M735.9 7.1V0" stroke="black" stroke-miterlimit="10"/>
<path d="M744.9 7.1V0" stroke="black" stroke-miterlimit="10"/>
<path d="M749.4 7.1V0" stroke="black" stroke-miterlimit="10"/>
<path d="M753.9 7.1V0" stroke="black" stroke-miterlimit="10"/>
<path d="M762.9 7.1V0" stroke="black" stroke-miterlimit="10"/>
<path d="M767.4 7.1V0" stroke="black" stroke-miterlimit="10"/>
<path d="M771.9 7.1V0" stroke="black" stroke-miterlimit="10"/>
<path d="M780.9 7.1V0" stroke="black" stroke-miterlimit="10"/>
<path d="M785.4 7.1V0" stroke="black" stroke-miterlimit="10"/>
<path d="M789.9 7.1V0" stroke="black" stroke-miterlimit="10"/>
<path d="M758.4 12.2V0" stroke="black" stroke-miterlimit="10"/>
<path d="M776.4 10.1V0" stroke="black" stroke-miterlimit="10"/>
<path d="M740.4 10.1V0" stroke="black" stroke-miterlimit="10"/>
<path d="M866.4 14.2V0" stroke="black" stroke-miterlimit="10"/>
<path d="M798.9 7.1V0" stroke="black" stroke-miterlimit="10"/>
<path d="M803.4 7.1V0" stroke="black" stroke-miterlimit="10"/>
<path d="M807.9 7.1V0" stroke="black" stroke-miterlimit="10"/>
<path d="M816.9 7.1V0" stroke="black" stroke-miterlimit="10"/>
<path d="M821.4 7.1V0" stroke="black" stroke-miterlimit="10"/>
<path d="M825.9 7.1V0" stroke="black" stroke-miterlimit="10"/>
<path d="M834.9 7.1V0" stroke="black" stroke-miterlimit="10"/>
<path d="M839.4 7.1V0" stroke="black" stroke-miterlimit="10"/>
<path d="M843.9 7.1V0" stroke="black" stroke-miterlimit="10"/>
<path d="M852.9 7.1V0" stroke="black" stroke-miterlimit="10"/>
<path d="M857.4 7.1V0" stroke="black" stroke-miterlimit="10"/>
<path d="M861.9 7.1V0" stroke="black" stroke-miterlimit="10"/>
<path d="M830.4 12.2V0" stroke="black" stroke-miterlimit="10"/>
<path d="M848.4 10.1V0" stroke="black" stroke-miterlimit="10"/>
<path d="M812.4 10.1V0" stroke="black" stroke-miterlimit="10"/>
<path d="M74.3721 23.8335H75.0761V18.1775H74.5481C74.3081 19.1135 74.1961 19.1935 72.8761 19.2495V19.7775H74.3721V23.8335Z" fill="black"/>
<path d="M148.292 23.2175H145.308C145.356 22.6895 145.668 22.2895 146.34 21.9295L147.14 21.5055C147.94 21.0815 148.332 20.5215 148.332 19.8015C148.332 18.8655 147.732 18.1135 146.588 18.1135C145.324 18.1135 144.684 18.8335 144.644 20.1135H145.348C145.404 19.2895 145.74 18.7295 146.564 18.7295C147.276 18.7295 147.612 19.1695 147.612 19.8015C147.612 20.2895 147.356 20.6495 146.852 20.9295L146.108 21.3375C144.956 21.9695 144.604 22.5215 144.516 23.8335H148.292V23.2175Z" fill="black"/>
<path d="M218.428 21.1855C219.196 21.1855 219.604 21.5455 219.604 22.2415C219.604 22.8495 219.244 23.3615 218.428 23.3615C217.62 23.3615 217.252 22.9455 217.212 22.1695H216.5C216.564 23.3775 217.212 23.9775 218.404 23.9775C219.532 23.9775 220.316 23.3215 220.316 22.2335C220.316 21.5215 220.012 21.0815 219.348 20.8495C219.9 20.6415 220.148 20.1935 220.148 19.6575C220.148 18.6255 219.444 18.1135 218.428 18.1135C217.292 18.1135 216.636 18.7375 216.62 19.9295H217.324C217.348 19.0895 217.708 18.7295 218.428 18.7295C219.012 18.7295 219.436 19.0495 219.436 19.6815C219.436 20.4895 218.852 20.6255 218.036 20.5855V21.1855H218.428Z" fill="black"/>
<path d="M290.868 23.8335H291.548V22.4095H292.388V21.8015H291.548V18.1935H290.932L288.452 21.6895V22.4095H290.868V23.8335ZM289.036 21.8015L290.868 19.2095V21.8015H289.036Z" fill="black"/>
<path d="M361.06 18.2415L360.644 21.2735H361.284C361.58 20.8815 361.916 20.7135 362.364 20.7135C363.188 20.7135 363.564 21.2575 363.564 22.0335C363.564 22.8095 363.148 23.3615 362.34 23.3615C361.732 23.3615 361.332 23.0655 361.172 22.4655H360.46C360.636 23.6975 361.692 23.9775 362.34 23.9775C363.548 23.9775 364.284 23.1455 364.284 22.0015C364.284 20.8415 363.492 20.1215 362.484 20.1215C362.1 20.1215 361.708 20.2175 361.404 20.4895L361.636 18.8575H363.988V18.2415H361.06Z" fill="black"/>
<path d="M436.252 19.5535C436.1 18.6415 435.532 18.1135 434.668 18.1135C433.34 18.1135 432.604 19.2335 432.604 21.1615C432.604 22.6495 433.076 23.9775 434.54 23.9775C435.724 23.9775 436.364 23.0575 436.364 22.0495C436.364 21.1135 435.764 20.2575 434.692 20.2575C434.06 20.2575 433.54 20.5615 433.292 21.0015C433.292 19.5695 433.772 18.7055 434.62 18.7055C435.196 18.7055 435.452 19.0655 435.556 19.5535H436.252ZM434.532 20.8495C435.236 20.8495 435.652 21.4015 435.652 22.1135C435.652 22.8335 435.236 23.3855 434.532 23.3855C433.86 23.3855 433.364 22.8335 433.364 22.1135C433.364 21.4015 433.86 20.8495 434.532 20.8495Z" fill="black"/>
<path d="M504.524 18.2415V18.8575H507.628C506.364 20.7055 505.812 21.4975 505.26 23.8335H506.012C506.348 21.9215 507.06 20.5855 508.316 18.8335V18.2415H504.524Z" fill="black"/>
<path d="M579.356 20.8175C579.94 20.4415 580.124 20.1695 580.124 19.6335C580.124 18.7375 579.436 18.1135 578.42 18.1135C577.436 18.1135 576.716 18.7295 576.716 19.6255C576.716 20.2175 576.98 20.5055 577.492 20.8175C576.844 21.1375 576.516 21.6015 576.516 22.2175C576.516 23.2575 577.3 23.9775 578.42 23.9775C579.564 23.9775 580.324 23.2575 580.324 22.2175C580.324 21.6015 580.004 21.1375 579.356 20.8175ZM578.42 18.7055C579.044 18.7055 579.444 19.0735 579.444 19.6495C579.444 20.1855 579.02 20.5375 578.42 20.5375C577.74 20.5375 577.396 20.1215 577.396 19.6335C577.396 19.1215 577.756 18.7055 578.42 18.7055ZM578.42 21.1295C579.076 21.1295 579.644 21.5135 579.644 22.2415C579.644 22.9295 579.14 23.3855 578.404 23.3855C577.732 23.3855 577.196 22.9375 577.196 22.2495C577.196 21.5375 577.756 21.1295 578.42 21.1295Z" fill="black"/>
<path d="M648.588 22.5375C648.74 23.4495 649.308 23.9775 650.172 23.9775C651.5 23.9775 652.236 22.8575 652.236 20.9295C652.236 19.4415 651.764 18.1135 650.3 18.1135C649.116 18.1135 648.476 19.0335 648.476 20.0415C648.476 20.9775 649.076 21.8335 650.148 21.8335C650.78 21.8335 651.3 21.5295 651.548 21.0895C651.548 22.5215 651.068 23.3855 650.22 23.3855C649.644 23.3855 649.388 23.0255 649.284 22.5375H648.588ZM650.308 21.2415C649.604 21.2415 649.188 20.6895 649.188 19.9775C649.188 19.2575 649.604 18.7055 650.308 18.7055C650.98 18.7055 651.476 19.2575 651.476 19.9775C651.476 20.6895 650.98 21.2415 650.308 21.2415Z" fill="black"/>
<path d="M719.927 23.8335H720.631V18.1775H720.103C719.863 19.1135 719.751 19.1935 718.431 19.2495V19.7775H719.927V23.8335ZM724.921 18.1135C723.465 18.1135 723.065 19.5535 723.065 21.0415C723.065 22.5295 723.465 23.9775 724.921 23.9775C726.377 23.9775 726.777 22.5295 726.777 21.0415C726.777 19.5535 726.377 18.1135 724.921 18.1135ZM724.921 18.7215C725.185 18.7215 725.401 18.8095 725.569 18.9855L723.993 22.6895C723.809 22.2895 723.721 21.7215 723.721 21.0415C723.721 19.6335 724.097 18.7215 724.921 18.7215ZM726.121 21.0415C726.121 22.4495 725.745 23.3695 724.921 23.3695C724.697 23.3695 724.505 23.3055 724.353 23.1775L725.897 19.5135C726.049 19.9055 726.121 20.4255 726.121 21.0415Z" fill="black"/>
<path d="M791.928 23.8335H792.632V18.1775H792.104C791.864 19.1135 791.752 19.1935 790.432 19.2495V19.7775H791.928V23.8335ZM796.873 23.8335H797.577V18.1775H797.049C796.809 19.1135 796.697 19.1935 795.377 19.2495V19.7775H796.873V23.8335Z" fill="black"/>
<path d="M863.927 23.8335H864.631V18.1775H864.103C863.863 19.1135 863.751 19.1935 862.431 19.2495V19.7775H863.927V23.8335ZM870.792 23.2175H867.808C867.856 22.6895 868.168 22.2895 868.84 21.9295L869.64 21.5055C870.44 21.0815 870.832 20.5215 870.832 19.8015C870.832 18.8655 870.232 18.1135 869.088 18.1135C867.824 18.1135 867.184 18.8335 867.144 20.1135H867.848C867.904 19.2895 868.24 18.7295 869.064 18.7295C869.776 18.7295 870.112 19.1695 870.112 19.8015C870.112 20.2895 869.856 20.6495 869.352 20.9295L868.608 21.3375C867.456 21.9695 867.104 22.5215 867.016 23.8335H870.792V23.2175Z" fill="black"/>
<path d="M1.55403 18.1125C0.0980313 18.1125 -0.301969 19.5525 -0.301969 21.0405C-0.301969 22.5285 0.0980313 23.9765 1.55403 23.9765C3.01003 23.9765 3.41003 22.5285 3.41003 21.0405C3.41003 19.5525 3.01003 18.1125 1.55403 18.1125ZM1.55403 18.7205C1.81803 18.7205 2.03403 18.8085 2.20203 18.9845L0.626031 22.6885C0.442031 22.2885 0.354031 21.7205 0.354031 21.0405C0.354031 19.6325 0.730031 18.7205 1.55403 18.7205ZM2.75403 21.0405C2.75403 22.4485 2.37803 23.3685 1.55403 23.3685C1.33003 23.3685 1.13803 23.3045 0.986031 23.1765L2.53003 19.5125C2.68203 19.9045 2.75403 20.4245 2.75403 21.0405ZM6.17134 19.0405H6.97134V18.2405H6.17134V19.0405ZM6.89934 19.6405H4.80334V20.1845H6.24334V23.2885H4.80334V23.8325H8.18734V23.2885H6.89934V19.6405ZM9.78066 23.8325H10.4447V21.4725C10.4447 20.7525 10.8367 20.1045 11.5887 20.1045C12.0527 20.1045 12.4527 20.3685 12.4527 20.9285V23.8325H13.1167V20.6645C13.1167 19.8885 12.5167 19.5205 11.7887 19.5205C11.1247 19.5205 10.7247 19.8245 10.3967 20.3365V19.6405H9.78066V23.8325Z" fill="black"/>
</g>
<defs>
<clipPath id="clip0_147_1133">
<rect width="871.3" height="25.6" fill="white"/>
</clipPath>
</defs>
</svg>
