<svg width="187" height="32" viewBox="0 0 187 32" fill="none" xmlns="http://www.w3.org/2000/svg">
<g style="mix-blend-mode:multiply" clip-path="url(#clip0_81_1360)">
<path d="M92.9 1.5C100.6 1.5 106.9 7.8 106.9 15.5C106.9 23.2 100.6 29.5 92.9 29.5C85.2 29.5 79 23.2 79 15.5C79 7.8 85.2 1.5 92.9 1.5ZM80.3 19.4C80.3 19.3 80.4 19.3 80.3 19.4C80.3 19.3 80.3 19.2 80.3 19.2C80 17.8 80.1 16.4 80.5 15.1C81.2 12.6 82.7 10.6 84.6 8.9C86.2 7.6 87.9 6.6 90 6.1C90.6 6 91.2 5.9 91.9 5.8C91.9 5.1 91.9 4.3 91.9 3.5C92.5 3.5 93 3.7 93.5 3.9C95.5 4.8 97.1 6.2 98.6 7.8C99.2 8.4 99.7 9.1 100 9.9C100.1 10 100.1 10.2 100 10.4C99.8 11.1 99.5 11.7 99 12.3C97.5 14.3 95.4 15.6 93 16.4C92.6 16.5 92.2 16.6 91.8 16.6C91.8 15.7 91.8 14.8 91.8 13.9C91.4 14 91.1 14 90.8 14.1C88.6 14.7 86.7 16 85.2 17.7C84.5 18.4 84 19.3 83.7 20.3C83.7 20.4 83.7 20.6 83.7 20.8C84 21.3 84.2 21.8 84.6 22.2C85.8 23.8 87.3 25.1 89 26.1C89.7 26.5 90.4 26.9 91.2 27.2C91.4 27.3 91.7 27.3 92 27.4C92 26.5 92 25.7 92 24.9C92.1 24.9 92.1 24.9 92.2 24.9C92.8 24.8 93.5 24.8 94.1 24.6C98.3 23.4 101.3 20.8 103 16.7C104.2 13.8 104 10.8 102.4 8.1C101.3 6.2 99.6 4.8 97.7 3.8C96.8 3.3 96 2.9 95 2.7C93.7 2.4 92.4 2.5 91.1 2.7C87.1 3 84.1 5 81.9 8.2C80.2 10.7 79.5 13.6 79.8 16.6C79.9 17.6 80 18.5 80.3 19.4Z" fill="black"/>
<path fill-rule="evenodd" clip-rule="evenodd" d="M120.7 1.5H130.1C129.3 2.4 128.5 3.1 128.4 5.1H121.7C121.4 5.2 121.2 5.4 121.1 5.7C121.1 8.1 121.1 10.5 121 12.9C121.1 13.2 121.5 13.5 121.8 13.5C122.7 13.5 123.7 13.6 124.6 13.5V10.8L129.1 15.3L124.6 19.9L124.7 17.2C123.2 17.2 121.8 17.2 120.3 17.3C118.6 17 117.5 15.8 117.3 14.3C117.3 11 117.3 7.7 117.3 4.4C117.4 4.5 118 1.5 120.7 1.5Z" fill="black"/>
<path fill-rule="evenodd" clip-rule="evenodd" d="M145.5 4.8V14.2C144.6 13.4 143.9 12.6 141.9 12.5V5.9C141.8 5.6 141.6 5.4 141.3 5.3C138.9 5.3 136.5 5.3 134.1 5.2C133.8 5.3 133.5 5.7 133.5 6C133.5 6.9 133.4 7.9 133.4 8.8H136.1L131.6 13.3L127 8.8L129.7 8.9C129.7 7.5 129.7 6 129.6 4.5C129.9 2.8 131.1 1.7 132.6 1.5C135.9 1.5 139.2 1.5 142.5 1.5C142.5 1.5 145.5 2.1 145.5 4.8Z" fill="black"/>
<path fill-rule="evenodd" clip-rule="evenodd" d="M142.2 29.3999H132.8C133.6 28.4999 134.4 27.7999 134.5 25.7999H141.2C141.5 25.6999 141.7 25.4999 141.8 25.1999C141.8 22.7999 141.8 20.3999 141.9 17.9999C141.8 17.6999 141.4 17.3999 141.1 17.3999C140.2 17.3999 139.2 17.2999 138.3 17.2999V19.9999L133.8 15.4999L138.3 10.8999L138.2 13.5999C139.7 13.5999 141.1 13.5999 142.6 13.4999C144.3 13.7999 145.4 14.9999 145.6 16.4999C145.6 19.7999 145.6 23.0999 145.6 26.3999C145.5 26.3999 144.9 29.3999 142.2 29.3999Z" fill="black"/>
<path fill-rule="evenodd" clip-rule="evenodd" d="M117.4 26.1002V16.7002C118.3 17.5002 119 18.3002 121 18.4002V25.1002C121.1 25.4002 121.3 25.6002 121.6 25.7002C124 25.7002 126.4 25.7002 128.8 25.8002C129.1 25.7002 129.4 25.3002 129.4 25.0002C129.4 24.1002 129.5 23.1002 129.5 22.2002H126.8L131.3 17.7002L135.9 22.2002L133.2 22.1002C133.2 23.5002 133.2 25.0002 133.3 26.5002C133 28.2002 131.8 29.3002 130.3 29.5002C127 29.5002 123.7 29.5002 120.4 29.5002C120.4 29.4002 117.4 28.8002 117.4 26.1002Z" fill="black"/>
<path fill-rule="evenodd" clip-rule="evenodd" d="M160.6 24.1003C160.2 24.8003 160.4 25.4003 160.5 25.7003L156.4 18.7003C155.9 18.0003 156.1 17.6003 156.3 17.2003L158.4 13.6003L156.2 12.3003H163.2L166.8 18.4003L164.6 17.1003L160.6 24.1003Z" fill="black"/>
<path fill-rule="evenodd" clip-rule="evenodd" d="M164.4 28.9003C161.3 28.6003 160.7 25.4003 161.2 24.4003L162.7 21.8003H170.5V28.9003H164.6H164.4Z" fill="black"/>
<path fill-rule="evenodd" clip-rule="evenodd" d="M183.8 21.8002C184.6 21.8002 185.1 21.3002 185.3 21.1002L181.3 28.1002C181 28.9002 180.5 29.0002 180 28.9002H175.9V31.4002L172.4 25.3002L175.9 19.2002V21.7002H183.8V21.8002Z" fill="black"/>
<path fill-rule="evenodd" clip-rule="evenodd" d="M186 16.1003C187.3 19.0003 184.8 21.1003 183.7 21.1003H180.7L176.8 14.4003L183 10.8003L186 15.9003V16.1003Z" fill="black"/>
<path fill-rule="evenodd" clip-rule="evenodd" d="M170.2 2.90012C169.8 2.20012 169.2 2.10012 168.9 2.00012H177C177.8 1.90012 178.2 2.20012 178.4 2.70012L180.5 6.30012L182.7 5.00012L179.2 11.1001H172.1L174.3 9.80012L170.2 2.90012Z" fill="black"/>
<path fill-rule="evenodd" clip-rule="evenodd" d="M164.1 3.8C165.9 1.3 169 2.3 169.6 3.3L171.1 5.9L167.2 12.6L161.1 9L164.1 3.9V3.8Z" fill="black"/>
<path d="M40.7 11.7002V6.5002C40.7 3.3002 42.4 1.7002 45.9 1.7002H62.6C65.8 1.7002 67.4 3.3002 67.4 6.5002V8.0002H69.6L65.5 12.8002L61.6 8.0002H63.8V7.2002C63.8 6.0002 63.2 5.3002 61.9 5.3002H46.3C45.1 5.3002 44.4 5.9002 44.4 7.2002V11.7002H40.7Z" fill="black"/>
<path d="M42.6 13.2002L38.5 18.0002H40.7V25.1002C40.7 28.1002 42.2 29.6002 45.2 29.6002H63.4C66.1 29.6002 67.5 28.1002 67.5 25.1002V22.1002H63.8V24.3002C63.8 25.3002 63.3 25.8002 62.3 25.8002H45.6C44.9 25.8002 44.5 25.3002 44.5 24.3002V18.0002H46.7L42.6 13.2002Z" fill="black"/>
<path d="M55.6 8.8001C55.2 8.7001 54.8 8.6001 54.5 8.6001C53.5 8.6001 52.6 9.0001 51.9 9.8001C51 10.9001 50.9 12.4001 51.5 13.6001H47.8V15.8001H53.4C53.4 18.8001 51.5 20.3001 47.8 20.3001V22.5001C53 22.5001 55.6 20.0001 55.6 15.1001C56.9 14.6001 57.8 13.3001 57.8 11.9001C57.8 10.5001 56.9 9.2001 55.6 8.8001ZM54.4 13.4001C53.5 13.4001 52.8 12.7001 52.8 11.8001C52.8 10.9001 53.5 10.2001 54.4 10.2001C55.3 10.2001 56 11.0001 56 11.8001C56 12.7001 55.3 13.4001 54.4 13.4001Z" fill="black"/>
<path d="M65.6 13.6001H57.8V15.5001H65.6V13.6001Z" fill="black"/>
<path d="M57.8 16.5H65.6C65.6 20.5 63 22.5 57.8 22.5V20.6C61.3 20.6 63 19.9 63 18.4H57.8V16.5Z" fill="black"/>
<path d="M13.3 13.1001H12.7V21.0001H13.3V13.1001Z" fill="black"/>
<path d="M9.20001 13.1001V17.8001H11.6V13.1001H11V14.6001H9.80001V13.1001H9.20001ZM11 15.2001V17.2001H9.80001V15.2001H11Z" fill="black"/>
<path d="M14.3 13.1001V16.3001H17.6V16.7001H18.2V13.1001H17.6V15.7001H14.8V13.1001H14.3Z" fill="black"/>
<path d="M14.7 18.5V20.5H18.3V20H15.3V19.1H18.2V17H14.5V17.6H17.6V18.5H14.7Z" fill="black"/>
<path d="M22.9 15.4001V13.1001H19.3V13.7001H22.4V14.8001H19.5V16.6001H23.1V16.0001H20.1V15.4001H22.9Z" fill="black"/>
<path d="M19 17.8998H20.1V20.8998H20.6V17.8998H21.8V20.8998H22.3V17.8998H23.4V17.2998H19V17.8998Z" fill="black"/>
<path d="M28.4 7.1C27.4 6.9 26.4 7.5 26.2 8.5V8.7L21.2 0H16.1C15.1 0 14.2 0.8 14.2 1.9C14.2 3 15 3.8 16.1 3.8H19.1L27.8 19L29.9 9.3C30.1 8.3 29.4 7.3 28.4 7.1Z" fill="black"/>
<path d="M28.9 20.9C28 20.4 26.9 20.7 26.3 21.6L24.8 24.2H7.20001L14.6 30.8C15 31.1 15.4 31.3 15.8 31.3C16.3 31.3 16.8 31.1 17.2 30.7C17.9 29.9 17.8 28.8 17.1 28.1L17 28H27L29.6 23.6C30.1 22.5 29.8 21.4 28.9 20.9Z" fill="black"/>
<path d="M4.3 18.9998L13.1 3.7998L3.7 6.7998C2.7 7.0998 2.2 8.1998 2.5 9.1998C2.8 10.1998 3.9 10.6998 4.9 10.3998H5.1L0 18.9998L2.6 23.3998C2.9 23.9998 3.6 24.2998 4.2 24.2998C4.5 24.2998 4.8 24.1998 5.1 24.0998C6 23.5998 6.3 22.3998 5.8 21.4998L4.3 18.9998Z" fill="black"/>
</g>
<defs>
<clipPath id="clip0_81_1360">
<rect width="186.4" height="31.5" fill="white"/>
</clipPath>
</defs>
</svg>
